<?xml version="1.0" encoding="us-ascii" standalone="no"?><svg xmlns="http://www.w3.org/2000/svg" xmlns:xlink="http://www.w3.org/1999/xlink" contentStyleType="text/css" height="1350px" preserveAspectRatio="none" style="width:2547px;height:1350px;background:#FFFFFF;" version="1.1" viewBox="0 0 2547 1350" width="2547px" zoomAndPan="magnify"><defs/><g><!--cluster Modelo--><g id="cluster_Modelo"><path d="M1614.5,427 L1668.5,427 A3.75,3.75 0 0 1 1671,429.5 L1678,450.6094 L2164.5,450.6094 A2.5,2.5 0 0 1 2167,453.1094 L2167,1340.5 A2.5,2.5 0 0 1 2164.5,1343 L1614.5,1343 A2.5,2.5 0 0 1 1612,1340.5 L1612,429.5 A2.5,2.5 0 0 1 1614.5,427 " fill="none" style="stroke:#000000;stroke-width:1.5;"/><line style="stroke:#000000;stroke-width:1.5;" x1="1612" x2="1678" y1="450.6094" y2="450.6094"/><text fill="#000000" font-family="sans-serif" font-size="14" font-weight="bold" lengthAdjust="spacing" textLength="53" x="1616" y="443.5332">Modelo</text></g><!--cluster Controlador--><g id="cluster_Controlador"><path d="M8.5,156 L93.5,156 A3.75,3.75 0 0 1 96,158.5 L103,179.6094 L1585.5,179.6094 A2.5,2.5 0 0 1 1588,182.1094 L1588,577.5 A2.5,2.5 0 0 1 1585.5,580 L8.5,580 A2.5,2.5 0 0 1 6,577.5 L6,158.5 A2.5,2.5 0 0 1 8.5,156 " fill="none" style="stroke:#000000;stroke-width:1.5;"/><line style="stroke:#000000;stroke-width:1.5;" x1="6" x2="103" y1="179.6094" y2="179.6094"/><text fill="#000000" font-family="sans-serif" font-size="14" font-weight="bold" lengthAdjust="spacing" textLength="84" x="10" y="172.5332">Controlador</text></g><!--cluster Auth--><g id="cluster_Auth"><path d="M285.5,200 L318.5,200 A3.75,3.75 0 0 1 321,202.5 L328,223.6094 L893.5,223.6094 A2.5,2.5 0 0 1 896,226.1094 L896,332.5 A2.5,2.5 0 0 1 893.5,335 L285.5,335 A2.5,2.5 0 0 1 283,332.5 L283,202.5 A2.5,2.5 0 0 1 285.5,200 " fill="none" style="stroke:#000000;stroke-width:1.5;"/><line style="stroke:#000000;stroke-width:1.5;" x1="283" x2="328" y1="223.6094" y2="223.6094"/><text fill="#000000" font-family="sans-serif" font-size="14" font-weight="bold" lengthAdjust="spacing" textLength="32" x="287" y="216.5332">Auth</text></g><!--cluster Vistas--><g id="cluster_Vistas"><path d="M785.5,6 L828.5,6 A3.75,3.75 0 0 1 831,8.5 L838,29.6094 L890.5,29.6094 A2.5,2.5 0 0 1 893,32.1094 L893,103.5 A2.5,2.5 0 0 1 890.5,106 L785.5,106 A2.5,2.5 0 0 1 783,103.5 L783,8.5 A2.5,2.5 0 0 1 785.5,6 " fill="none" style="stroke:#000000;stroke-width:1.5;"/><line style="stroke:#000000;stroke-width:1.5;" x1="783" x2="838" y1="29.6094" y2="29.6094"/><text fill="#000000" font-family="sans-serif" font-size="14" font-weight="bold" lengthAdjust="spacing" textLength="42" x="787" y="22.5332">Vistas</text></g><!--class User--><g id="elem_User"><rect codeLine="14" fill="#F1F1F1" height="153.6563" id="User" rx="2.5" ry="2.5" style="stroke:#181818;stroke-width:0.5;" width="278" x="1628" y="463"/><ellipse cx="1748.25" cy="479" fill="#ADD1B2" rx="11" ry="11" style="stroke:#181818;stroke-width:1.0;"/><path d="M1751.0156,474.875 Q1751.1719,474.6563 1751.3594,474.5469 Q1751.5469,474.4375 1751.7656,474.4375 Q1752.1406,474.4375 1752.375,474.7031 Q1752.6094,474.9531 1752.6094,475.5625 L1752.6094,477.0156 Q1752.6094,477.625 1752.375,477.8906 Q1752.1406,478.1563 1751.7656,478.1563 Q1751.4219,478.1563 1751.2188,477.9531 Q1751.0156,477.7656 1750.9063,477.25 Q1750.8594,476.8906 1750.6719,476.7031 Q1750.3438,476.3281 1749.7344,476.1094 Q1749.125,475.8906 1748.5,475.8906 Q1747.7344,475.8906 1747.0938,476.2188 Q1746.4688,476.5469 1745.9688,477.2969 Q1745.4844,478.0469 1745.4844,479.0781 L1745.4844,480.1719 Q1745.4844,481.4063 1746.375,482.2344 Q1747.2656,483.0469 1748.8594,483.0469 Q1749.7969,483.0469 1750.4531,482.7969 Q1750.8438,482.6406 1751.2656,482.2031 Q1751.5313,481.9375 1751.6719,481.8594 Q1751.8281,481.7813 1752.0313,481.7813 Q1752.3594,481.7813 1752.6094,482.0469 Q1752.875,482.2969 1752.875,482.6406 Q1752.875,482.9844 1752.5313,483.3906 Q1752.0313,483.9688 1751.2344,484.2969 Q1750.1563,484.75 1748.8594,484.75 Q1747.3438,484.75 1746.1406,484.125 Q1745.1563,483.625 1744.4688,482.5625 Q1743.7813,481.4844 1743.7813,480.2031 L1743.7813,479.0469 Q1743.7813,477.7188 1744.3906,476.5781 Q1745.0156,475.4219 1746.1094,474.8125 Q1747.2031,474.1875 1748.4375,474.1875 Q1749.1719,474.1875 1749.8125,474.3594 Q1750.4688,474.5156 1751.0156,474.875 Z " fill="#000000"/><text fill="#000000" font-family="sans-serif" font-size="14" lengthAdjust="spacing" textLength="29" x="1768.75" y="484.7285">User</text><line style="stroke:#181818;stroke-width:0.5;" x1="1629" x2="1905" y1="495" y2="495"/><ellipse cx="1639" cy="509.3047" fill="none" rx="3" ry="3" style="stroke:#038048;stroke-width:1.0;"/><text fill="#000000" font-family="sans-serif" font-size="14" lengthAdjust="spacing" textLength="30" x="1648" y="513.5332">int id</text><ellipse cx="1639" cy="526.9141" fill="none" rx="3" ry="3" style="stroke:#038048;stroke-width:1.0;"/><text fill="#000000" font-family="sans-serif" font-size="14" lengthAdjust="spacing" textLength="74" x="1648" y="531.1426">string name</text><ellipse cx="1639" cy="544.5234" fill="none" rx="3" ry="3" style="stroke:#038048;stroke-width:1.0;"/><text fill="#000000" font-family="sans-serif" font-size="14" lengthAdjust="spacing" textLength="72" x="1648" y="548.752">string email</text><ellipse cx="1639" cy="562.1328" fill="none" rx="3" ry="3" style="stroke:#038048;stroke-width:1.0;"/><text fill="#000000" font-family="sans-serif" font-size="14" lengthAdjust="spacing" textLength="99" x="1648" y="566.3613">string password</text><line style="stroke:#181818;stroke-width:1.0;" x1="1629" x2="1905" y1="573.4375" y2="573.4375"/><ellipse cx="1639" cy="587.7422" fill="#84BE84" rx="3" ry="3" style="stroke:#038048;stroke-width:1.0;"/><text fill="#000000" font-family="sans-serif" font-size="14" lengthAdjust="spacing" textLength="184" x="1648" y="591.9707">listasDeCompra() : Collection</text><ellipse cx="1639" cy="605.3516" fill="#84BE84" rx="3" ry="3" style="stroke:#038048;stroke-width:1.0;"/><text fill="#000000" font-family="sans-serif" font-size="14" lengthAdjust="spacing" textLength="252" x="1648" y="609.5801">sendEmailVerificationNotification() : void</text></g><!--class Supermercado--><g id="elem_Supermercado"><rect codeLine="24" fill="#F1F1F1" height="118.4375" id="Supermercado" rx="2.5" ry="2.5" style="stroke:#181818;stroke-width:0.5;" width="210" x="1941" y="481"/><ellipse cx="1995.25" cy="497" fill="#ADD1B2" rx="11" ry="11" style="stroke:#181818;stroke-width:1.0;"/><path d="M1998.0156,492.875 Q1998.1719,492.6563 1998.3594,492.5469 Q1998.5469,492.4375 1998.7656,492.4375 Q1999.1406,492.4375 1999.375,492.7031 Q1999.6094,492.9531 1999.6094,493.5625 L1999.6094,495.0156 Q1999.6094,495.625 1999.375,495.8906 Q1999.1406,496.1563 1998.7656,496.1563 Q1998.4219,496.1563 1998.2188,495.9531 Q1998.0156,495.7656 1997.9063,495.25 Q1997.8594,494.8906 1997.6719,494.7031 Q1997.3438,494.3281 1996.7344,494.1094 Q1996.125,493.8906 1995.5,493.8906 Q1994.7344,493.8906 1994.0938,494.2188 Q1993.4688,494.5469 1992.9688,495.2969 Q1992.4844,496.0469 1992.4844,497.0781 L1992.4844,498.1719 Q1992.4844,499.4063 1993.375,500.2344 Q1994.2656,501.0469 1995.8594,501.0469 Q1996.7969,501.0469 1997.4531,500.7969 Q1997.8438,500.6406 1998.2656,500.2031 Q1998.5313,499.9375 1998.6719,499.8594 Q1998.8281,499.7813 1999.0313,499.7813 Q1999.3594,499.7813 1999.6094,500.0469 Q1999.875,500.2969 1999.875,500.6406 Q1999.875,500.9844 1999.5313,501.3906 Q1999.0313,501.9688 1998.2344,502.2969 Q1997.1563,502.75 1995.8594,502.75 Q1994.3438,502.75 1993.1406,502.125 Q1992.1563,501.625 1991.4688,500.5625 Q1990.7813,499.4844 1990.7813,498.2031 L1990.7813,497.0469 Q1990.7813,495.7188 1991.3906,494.5781 Q1992.0156,493.4219 1993.1094,492.8125 Q1994.2031,492.1875 1995.4375,492.1875 Q1996.1719,492.1875 1996.8125,492.3594 Q1997.4688,492.5156 1998.0156,492.875 Z " fill="#000000"/><text fill="#000000" font-family="sans-serif" font-size="14" lengthAdjust="spacing" textLength="93" x="2015.75" y="502.7285">Supermercado</text><line style="stroke:#181818;stroke-width:0.5;" x1="1942" x2="2150" y1="513" y2="513"/><ellipse cx="1952" cy="527.3047" fill="none" rx="3" ry="3" style="stroke:#038048;stroke-width:1.0;"/><text fill="#000000" font-family="sans-serif" font-size="14" lengthAdjust="spacing" textLength="30" x="1961" y="531.5332">int id</text><ellipse cx="1952" cy="544.9141" fill="none" rx="3" ry="3" style="stroke:#038048;stroke-width:1.0;"/><text fill="#000000" font-family="sans-serif" font-size="14" lengthAdjust="spacing" textLength="87" x="1961" y="549.1426">string nombre</text><line style="stroke:#181818;stroke-width:1.0;" x1="1942" x2="2150" y1="556.2188" y2="556.2188"/><ellipse cx="1952" cy="570.5234" fill="#84BE84" rx="3" ry="3" style="stroke:#038048;stroke-width:1.0;"/><text fill="#000000" font-family="sans-serif" font-size="14" lengthAdjust="spacing" textLength="184" x="1961" y="574.752">listasDeCompra() : Collection</text><ellipse cx="1952" cy="588.1328" fill="#84BE84" rx="3" ry="3" style="stroke:#038048;stroke-width:1.0;"/><text fill="#000000" font-family="sans-serif" font-size="14" lengthAdjust="spacing" textLength="126" x="1961" y="592.3613">getNombre() : string</text></g><!--class ListaCompra--><g id="elem_ListaCompra"><rect codeLine="32" fill="#F1F1F1" height="241.7031" id="ListaCompra" rx="2.5" ry="2.5" style="stroke:#181818;stroke-width:0.5;" width="396" x="1755" y="695"/><ellipse cx="1908.75" cy="711" fill="#ADD1B2" rx="11" ry="11" style="stroke:#181818;stroke-width:1.0;"/><path d="M1911.5156,706.875 Q1911.6719,706.6563 1911.8594,706.5469 Q1912.0469,706.4375 1912.2656,706.4375 Q1912.6406,706.4375 1912.875,706.7031 Q1913.1094,706.9531 1913.1094,707.5625 L1913.1094,709.0156 Q1913.1094,709.625 1912.875,709.8906 Q1912.6406,710.1563 1912.2656,710.1563 Q1911.9219,710.1563 1911.7188,709.9531 Q1911.5156,709.7656 1911.4063,709.25 Q1911.3594,708.8906 1911.1719,708.7031 Q1910.8438,708.3281 1910.2344,708.1094 Q1909.625,707.8906 1909,707.8906 Q1908.2344,707.8906 1907.5938,708.2188 Q1906.9688,708.5469 1906.4688,709.2969 Q1905.9844,710.0469 1905.9844,711.0781 L1905.9844,712.1719 Q1905.9844,713.4063 1906.875,714.2344 Q1907.7656,715.0469 1909.3594,715.0469 Q1910.2969,715.0469 1910.9531,714.7969 Q1911.3438,714.6406 1911.7656,714.2031 Q1912.0313,713.9375 1912.1719,713.8594 Q1912.3281,713.7813 1912.5313,713.7813 Q1912.8594,713.7813 1913.1094,714.0469 Q1913.375,714.2969 1913.375,714.6406 Q1913.375,714.9844 1913.0313,715.3906 Q1912.5313,715.9688 1911.7344,716.2969 Q1910.6563,716.75 1909.3594,716.75 Q1907.8438,716.75 1906.6406,716.125 Q1905.6563,715.625 1904.9688,714.5625 Q1904.2813,713.4844 1904.2813,712.2031 L1904.2813,711.0469 Q1904.2813,709.7188 1904.8906,708.5781 Q1905.5156,707.4219 1906.6094,706.8125 Q1907.7031,706.1875 1908.9375,706.1875 Q1909.6719,706.1875 1910.3125,706.3594 Q1910.9688,706.5156 1911.5156,706.875 Z " fill="#000000"/><text fill="#000000" font-family="sans-serif" font-size="14" lengthAdjust="spacing" textLength="80" x="1929.25" y="716.7285">ListaCompra</text><line style="stroke:#181818;stroke-width:0.5;" x1="1756" x2="2150" y1="727" y2="727"/><ellipse cx="1766" cy="741.3047" fill="none" rx="3" ry="3" style="stroke:#038048;stroke-width:1.0;"/><text fill="#000000" font-family="sans-serif" font-size="14" lengthAdjust="spacing" textLength="30" x="1775" y="745.5332">int id</text><ellipse cx="1766" cy="758.9141" fill="none" rx="3" ry="3" style="stroke:#038048;stroke-width:1.0;"/><text fill="#000000" font-family="sans-serif" font-size="14" lengthAdjust="spacing" textLength="66" x="1775" y="763.1426">int user_id</text><ellipse cx="1766" cy="776.5234" fill="none" rx="3" ry="3" style="stroke:#038048;stroke-width:1.0;"/><text fill="#000000" font-family="sans-serif" font-size="14" lengthAdjust="spacing" textLength="129" x="1775" y="780.752">int supermercado_id</text><ellipse cx="1766" cy="794.1328" fill="none" rx="3" ry="3" style="stroke:#038048;stroke-width:1.0;"/><text fill="#000000" font-family="sans-serif" font-size="14" lengthAdjust="spacing" textLength="87" x="1775" y="798.3613">string nombre</text><line style="stroke:#181818;stroke-width:1.0;" x1="1756" x2="2150" y1="805.4375" y2="805.4375"/><ellipse cx="1766" cy="819.7422" fill="#84BE84" rx="3" ry="3" style="stroke:#038048;stroke-width:1.0;"/><text fill="#000000" font-family="sans-serif" font-size="14" lengthAdjust="spacing" textLength="98" x="1775" y="823.9707">usuario() : User</text><ellipse cx="1766" cy="837.3516" fill="#84BE84" rx="3" ry="3" style="stroke:#038048;stroke-width:1.0;"/><text fill="#000000" font-family="sans-serif" font-size="14" lengthAdjust="spacing" textLength="206" x="1775" y="841.5801">supermercado() : Supermercado</text><ellipse cx="1766" cy="854.9609" fill="#84BE84" rx="3" ry="3" style="stroke:#038048;stroke-width:1.0;"/><text fill="#000000" font-family="sans-serif" font-size="14" lengthAdjust="spacing" textLength="147" x="1775" y="859.1895">productos() : Collection</text><ellipse cx="1766" cy="872.5703" fill="#84BE84" rx="3" ry="3" style="stroke:#038048;stroke-width:1.0;"/><text fill="#000000" font-family="sans-serif" font-size="14" lengthAdjust="spacing" textLength="370" x="1775" y="876.7988">crearLista(userId, supermercadoId, nombre) : ListaCompra</text><ellipse cx="1766" cy="890.1797" fill="#84BE84" rx="3" ry="3" style="stroke:#038048;stroke-width:1.0;"/><text fill="#000000" font-family="sans-serif" font-size="14" lengthAdjust="spacing" textLength="128" x="1775" y="894.4082">borrarLista(id) : void</text><ellipse cx="1766" cy="907.7891" fill="#84BE84" rx="3" ry="3" style="stroke:#038048;stroke-width:1.0;"/><text fill="#000000" font-family="sans-serif" font-size="14" lengthAdjust="spacing" textLength="209" x="1775" y="912.0176">obtenerListas(userId) : Collection</text><ellipse cx="1766" cy="925.3984" fill="#84BE84" rx="3" ry="3" style="stroke:#038048;stroke-width:1.0;"/><text fill="#000000" font-family="sans-serif" font-size="14" lengthAdjust="spacing" textLength="191" x="1775" y="929.627">mostrarLista(id) : ListaCompra</text></g><!--class ProductoLista--><g id="elem_ProductoLista"><rect codeLine="47" fill="#F1F1F1" height="312.1406" id="ProductoLista" rx="2.5" ry="2.5" style="stroke:#181818;stroke-width:0.5;" width="366" x="1785" y="1015"/><ellipse cx="1920.25" cy="1031" fill="#ADD1B2" rx="11" ry="11" style="stroke:#181818;stroke-width:1.0;"/><path d="M1923.0156,1026.875 Q1923.1719,1026.6563 1923.3594,1026.5469 Q1923.5469,1026.4375 1923.7656,1026.4375 Q1924.1406,1026.4375 1924.375,1026.7031 Q1924.6094,1026.9531 1924.6094,1027.5625 L1924.6094,1029.0156 Q1924.6094,1029.625 1924.375,1029.8906 Q1924.1406,1030.1563 1923.7656,1030.1563 Q1923.4219,1030.1563 1923.2188,1029.9531 Q1923.0156,1029.7656 1922.9063,1029.25 Q1922.8594,1028.8906 1922.6719,1028.7031 Q1922.3438,1028.3281 1921.7344,1028.1094 Q1921.125,1027.8906 1920.5,1027.8906 Q1919.7344,1027.8906 1919.0938,1028.2188 Q1918.4688,1028.5469 1917.9688,1029.2969 Q1917.4844,1030.0469 1917.4844,1031.0781 L1917.4844,1032.1719 Q1917.4844,1033.4063 1918.375,1034.2344 Q1919.2656,1035.0469 1920.8594,1035.0469 Q1921.7969,1035.0469 1922.4531,1034.7969 Q1922.8438,1034.6406 1923.2656,1034.2031 Q1923.5313,1033.9375 1923.6719,1033.8594 Q1923.8281,1033.7813 1924.0313,1033.7813 Q1924.3594,1033.7813 1924.6094,1034.0469 Q1924.875,1034.2969 1924.875,1034.6406 Q1924.875,1034.9844 1924.5313,1035.3906 Q1924.0313,1035.9688 1923.2344,1036.2969 Q1922.1563,1036.75 1920.8594,1036.75 Q1919.3438,1036.75 1918.1406,1036.125 Q1917.1563,1035.625 1916.4688,1034.5625 Q1915.7813,1033.4844 1915.7813,1032.2031 L1915.7813,1031.0469 Q1915.7813,1029.7188 1916.3906,1028.5781 Q1917.0156,1027.4219 1918.1094,1026.8125 Q1919.2031,1026.1875 1920.4375,1026.1875 Q1921.1719,1026.1875 1921.8125,1026.3594 Q1922.4688,1026.5156 1923.0156,1026.875 Z " fill="#000000"/><text fill="#000000" font-family="sans-serif" font-size="14" lengthAdjust="spacing" textLength="87" x="1940.75" y="1036.7285">ProductoLista</text><line style="stroke:#181818;stroke-width:0.5;" x1="1786" x2="2150" y1="1047" y2="1047"/><ellipse cx="1796" cy="1061.3047" fill="none" rx="3" ry="3" style="stroke:#038048;stroke-width:1.0;"/><text fill="#000000" font-family="sans-serif" font-size="14" lengthAdjust="spacing" textLength="30" x="1805" y="1065.5332">int id</text><ellipse cx="1796" cy="1078.9141" fill="none" rx="3" ry="3" style="stroke:#038048;stroke-width:1.0;"/><text fill="#000000" font-family="sans-serif" font-size="14" lengthAdjust="spacing" textLength="118" x="1805" y="1083.1426">int lista_compra_id</text><ellipse cx="1796" cy="1096.5234" fill="none" rx="3" ry="3" style="stroke:#038048;stroke-width:1.0;"/><text fill="#000000" font-family="sans-serif" font-size="14" lengthAdjust="spacing" textLength="151" x="1805" y="1100.752">string nombre_producto</text><ellipse cx="1796" cy="1114.1328" fill="none" rx="3" ry="3" style="stroke:#038048;stroke-width:1.0;"/><text fill="#000000" font-family="sans-serif" font-size="14" lengthAdjust="spacing" textLength="73" x="1805" y="1118.3613">int cantidad</text><ellipse cx="1796" cy="1131.7422" fill="none" rx="3" ry="3" style="stroke:#038048;stroke-width:1.0;"/><text fill="#000000" font-family="sans-serif" font-size="14" lengthAdjust="spacing" textLength="91" x="1805" y="1135.9707">decimal precio</text><ellipse cx="1796" cy="1149.3516" fill="none" rx="3" ry="3" style="stroke:#038048;stroke-width:1.0;"/><text fill="#000000" font-family="sans-serif" font-size="14" lengthAdjust="spacing" textLength="74" x="1805" y="1153.5801">string notas</text><ellipse cx="1796" cy="1166.9609" fill="none" rx="3" ry="3" style="stroke:#038048;stroke-width:1.0;"/><text fill="#000000" font-family="sans-serif" font-size="14" lengthAdjust="spacing" textLength="85" x="1805" y="1171.1895">string imagen</text><line style="stroke:#181818;stroke-width:1.0;" x1="1786" x2="2150" y1="1178.2656" y2="1178.2656"/><ellipse cx="1796" cy="1192.5703" fill="#84BE84" rx="3" ry="3" style="stroke:#038048;stroke-width:1.0;"/><text fill="#000000" font-family="sans-serif" font-size="14" lengthAdjust="spacing" textLength="195" x="1805" y="1196.7988">listaDeCompra() : ListaCompra</text><ellipse cx="1796" cy="1210.1797" fill="#84BE84" rx="3" ry="3" style="stroke:#038048;stroke-width:1.0;"/><text fill="#000000" font-family="sans-serif" font-size="14" lengthAdjust="spacing" textLength="233" x="1805" y="1214.4082">obtenerProductos(listaId) : Collection</text><ellipse cx="1796" cy="1227.7891" fill="#84BE84" rx="3" ry="3" style="stroke:#038048;stroke-width:1.0;"/><text fill="#000000" font-family="sans-serif" font-size="14" lengthAdjust="spacing" textLength="177" x="1805" y="1232.0176">contarProductos(listaId) : int</text><ellipse cx="1796" cy="1245.3984" fill="#84BE84" rx="3" ry="3" style="stroke:#038048;stroke-width:1.0;"/><text fill="#000000" font-family="sans-serif" font-size="14" lengthAdjust="spacing" textLength="165" x="1805" y="1249.627">eliminarProducto(id) : void</text><ellipse cx="1796" cy="1263.0078" fill="#84BE84" rx="3" ry="3" style="stroke:#038048;stroke-width:1.0;"/><text fill="#000000" font-family="sans-serif" font-size="14" lengthAdjust="spacing" textLength="237" x="1805" y="1267.2363">obtenerTodosProductos() : Collection</text><ellipse cx="1796" cy="1280.6172" fill="#84BE84" rx="3" ry="3" style="stroke:#038048;stroke-width:1.0;"/><text fill="#000000" font-family="sans-serif" font-size="14" lengthAdjust="spacing" textLength="340" x="1805" y="1284.8457">obtenerProductosPorCategoria(categoria) : Collection</text><ellipse cx="1796" cy="1298.2266" fill="#84BE84" rx="3" ry="3" style="stroke:#038048;stroke-width:1.0;"/><text fill="#000000" font-family="sans-serif" font-size="14" lengthAdjust="spacing" textLength="275" x="1805" y="1302.4551">obtenerCategoriasDisponibles() : Collection</text><ellipse cx="1796" cy="1315.8359" fill="#84BE84" rx="3" ry="3" style="stroke:#038048;stroke-width:1.0;"/><text fill="#000000" font-family="sans-serif" font-size="14" lengthAdjust="spacing" textLength="293" x="1805" y="1320.0645">obtenerProductosAgrupadosCategoria() : Map</text></g><!--class Controller--><g id="elem_Controller"><rect codeLine="78" fill="#F1F1F1" height="48" id="Controller" rx="2.5" ry="2.5" style="stroke:#181818;stroke-width:0.5;" width="94" x="697" y="516"/><ellipse cx="712" cy="532" fill="#A9DCDF" rx="11" ry="11" style="stroke:#181818;stroke-width:1.0;"/><path d="M714.1875,533.7656 L710.0469,533.7656 L709.625,534.7969 L710.0469,534.7969 Q710.6563,534.7969 710.9219,535.0313 Q711.1875,535.2656 711.1875,535.6563 Q711.1875,536.0313 710.9219,536.2656 Q710.6563,536.5 710.0469,536.5 L707.75,536.5 Q707.1406,536.5 706.8906,536.2656 Q706.625,536.0313 706.625,535.6406 Q706.625,535.2656 706.9063,535.0313 Q707.1719,534.7813 707.7969,534.7969 L710.4688,528.1406 L709.3594,528.1406 Q708.75,528.1406 708.4844,527.9063 Q708.2188,527.6719 708.2188,527.2813 Q708.2188,526.9063 708.4844,526.6719 Q708.75,526.4375 709.3594,526.4375 L713.0313,526.4375 L716.4219,534.7969 Q717.0156,534.7969 717.2031,534.9375 Q717.5938,535.2031 717.5938,535.6563 Q717.5938,536.0313 717.3281,536.2656 Q717.0781,536.5 716.4688,536.5 L714.1719,536.5 Q713.5625,536.5 713.2969,536.2656 Q713.0313,536.0313 713.0313,535.6406 Q713.0313,535.2656 713.2969,535.0313 Q713.5625,534.7969 714.1719,534.7969 L714.5938,534.7969 L714.1875,533.7656 Z M713.4688,532.0625 L712.1094,528.6875 L710.7344,532.0625 L713.4688,532.0625 Z " fill="#000000"/><text fill="#000000" font-family="sans-serif" font-size="14" font-style="italic" lengthAdjust="spacing" textLength="62" x="726" y="537.7285">Controller</text><line style="stroke:#181818;stroke-width:0.5;" x1="698" x2="790" y1="548" y2="548"/><line style="stroke:#181818;stroke-width:0.5;" x1="698" x2="790" y1="556" y2="556"/></g><!--class Supermercado_Controller--><g id="elem_Supermercado_Controller"><rect codeLine="80" fill="#F1F1F1" height="65.6094" id="Supermercado_Controller" rx="2.5" ry="2.5" style="stroke:#181818;stroke-width:0.5;" width="242" x="22" y="244.5"/><ellipse cx="58.15" cy="260.5" fill="#ADD1B2" rx="11" ry="11" style="stroke:#181818;stroke-width:1.0;"/><path d="M60.9156,256.375 Q61.0719,256.1563 61.2594,256.0469 Q61.4469,255.9375 61.6656,255.9375 Q62.0406,255.9375 62.275,256.2031 Q62.5094,256.4531 62.5094,257.0625 L62.5094,258.5156 Q62.5094,259.125 62.275,259.3906 Q62.0406,259.6563 61.6656,259.6563 Q61.3219,259.6563 61.1188,259.4531 Q60.9156,259.2656 60.8063,258.75 Q60.7594,258.3906 60.5719,258.2031 Q60.2438,257.8281 59.6344,257.6094 Q59.025,257.3906 58.4,257.3906 Q57.6344,257.3906 56.9938,257.7188 Q56.3688,258.0469 55.8688,258.7969 Q55.3844,259.5469 55.3844,260.5781 L55.3844,261.6719 Q55.3844,262.9063 56.275,263.7344 Q57.1656,264.5469 58.7594,264.5469 Q59.6969,264.5469 60.3531,264.2969 Q60.7438,264.1406 61.1656,263.7031 Q61.4313,263.4375 61.5719,263.3594 Q61.7281,263.2813 61.9313,263.2813 Q62.2594,263.2813 62.5094,263.5469 Q62.775,263.7969 62.775,264.1406 Q62.775,264.4844 62.4313,264.8906 Q61.9313,265.4688 61.1344,265.7969 Q60.0563,266.25 58.7594,266.25 Q57.2438,266.25 56.0406,265.625 Q55.0563,265.125 54.3688,264.0625 Q53.6813,262.9844 53.6813,261.7031 L53.6813,260.5469 Q53.6813,259.2188 54.2906,258.0781 Q54.9156,256.9219 56.0094,256.3125 Q57.1031,255.6875 58.3375,255.6875 Q59.0719,255.6875 59.7125,255.8594 Q60.3688,256.0156 60.9156,256.375 Z " fill="#000000"/><text fill="#000000" font-family="sans-serif" font-size="14" lengthAdjust="spacing" textLength="163" x="76.85" y="266.2285">Supermercado_Controller</text><line style="stroke:#181818;stroke-width:0.5;" x1="23" x2="263" y1="276.5" y2="276.5"/><line style="stroke:#181818;stroke-width:0.5;" x1="23" x2="263" y1="284.5" y2="284.5"/><ellipse cx="33" cy="298.8047" fill="#84BE84" rx="3" ry="3" style="stroke:#038048;stroke-width:1.0;"/><text fill="#000000" font-family="sans-serif" font-size="14" lengthAdjust="spacing" textLength="216" x="42" y="303.0332">showSupermercados() : Collection</text></g><!--class ListaCompra_Controller--><g id="elem_ListaCompra_Controller"><rect codeLine="95" fill="#F1F1F1" height="171.2656" id="ListaCompra_Controller" rx="2.5" ry="2.5" style="stroke:#181818;stroke-width:0.5;" width="265" x="915.5" y="192"/><ellipse cx="968.75" cy="208" fill="#ADD1B2" rx="11" ry="11" style="stroke:#181818;stroke-width:1.0;"/><path d="M971.5156,203.875 Q971.6719,203.6563 971.8594,203.5469 Q972.0469,203.4375 972.2656,203.4375 Q972.6406,203.4375 972.875,203.7031 Q973.1094,203.9531 973.1094,204.5625 L973.1094,206.0156 Q973.1094,206.625 972.875,206.8906 Q972.6406,207.1563 972.2656,207.1563 Q971.9219,207.1563 971.7188,206.9531 Q971.5156,206.7656 971.4063,206.25 Q971.3594,205.8906 971.1719,205.7031 Q970.8438,205.3281 970.2344,205.1094 Q969.625,204.8906 969,204.8906 Q968.2344,204.8906 967.5938,205.2188 Q966.9688,205.5469 966.4688,206.2969 Q965.9844,207.0469 965.9844,208.0781 L965.9844,209.1719 Q965.9844,210.4063 966.875,211.2344 Q967.7656,212.0469 969.3594,212.0469 Q970.2969,212.0469 970.9531,211.7969 Q971.3438,211.6406 971.7656,211.2031 Q972.0313,210.9375 972.1719,210.8594 Q972.3281,210.7813 972.5313,210.7813 Q972.8594,210.7813 973.1094,211.0469 Q973.375,211.2969 973.375,211.6406 Q973.375,211.9844 973.0313,212.3906 Q972.5313,212.9688 971.7344,213.2969 Q970.6563,213.75 969.3594,213.75 Q967.8438,213.75 966.6406,213.125 Q965.6563,212.625 964.9688,211.5625 Q964.2813,210.4844 964.2813,209.2031 L964.2813,208.0469 Q964.2813,206.7188 964.8906,205.5781 Q965.5156,204.4219 966.6094,203.8125 Q967.7031,203.1875 968.9375,203.1875 Q969.6719,203.1875 970.3125,203.3594 Q970.9688,203.5156 971.5156,203.875 Z " fill="#000000"/><text fill="#000000" font-family="sans-serif" font-size="14" lengthAdjust="spacing" textLength="150" x="989.25" y="213.7285">ListaCompra_Controller</text><line style="stroke:#181818;stroke-width:0.5;" x1="916.5" x2="1179.5" y1="224" y2="224"/><rect fill="none" height="6" style="stroke:#C82930;stroke-width:1.0;" width="6" x="923.5" y="235.3047"/><text fill="#000000" font-family="sans-serif" font-size="14" lengthAdjust="spacing" textLength="66" x="935.5" y="242.5332">int user_id</text><line style="stroke:#181818;stroke-width:1.0;" x1="916.5" x2="1179.5" y1="249.6094" y2="249.6094"/><ellipse cx="926.5" cy="263.9141" fill="#84BE84" rx="3" ry="3" style="stroke:#038048;stroke-width:1.0;"/><text fill="#000000" font-family="sans-serif" font-size="14" lengthAdjust="spacing" textLength="134" x="935.5" y="268.1426">showListView() : View</text><ellipse cx="926.5" cy="281.5234" fill="#84BE84" rx="3" ry="3" style="stroke:#038048;stroke-width:1.0;"/><text fill="#000000" font-family="sans-serif" font-size="14" lengthAdjust="spacing" textLength="239" x="935.5" y="285.752">create(request : Request) : Response</text><ellipse cx="926.5" cy="299.1328" fill="#84BE84" rx="3" ry="3" style="stroke:#038048;stroke-width:1.0;"/><text fill="#000000" font-family="sans-serif" font-size="14" lengthAdjust="spacing" textLength="141" x="935.5" y="303.3613">getListas() : Collection</text><ellipse cx="926.5" cy="316.7422" fill="#84BE84" rx="3" ry="3" style="stroke:#038048;stroke-width:1.0;"/><text fill="#000000" font-family="sans-serif" font-size="14" lengthAdjust="spacing" textLength="179" x="935.5" y="320.9707">contarProductos(id : int) : int</text><ellipse cx="926.5" cy="334.3516" fill="#84BE84" rx="3" ry="3" style="stroke:#038048;stroke-width:1.0;"/><text fill="#000000" font-family="sans-serif" font-size="14" lengthAdjust="spacing" textLength="193" x="935.5" y="338.5801">borrarLista(id : int) : Response</text><ellipse cx="926.5" cy="351.9609" fill="#84BE84" rx="3" ry="3" style="stroke:#038048;stroke-width:1.0;"/><text fill="#000000" font-family="sans-serif" font-size="14" lengthAdjust="spacing" textLength="167" x="935.5" y="356.1895">mostrarLista(id : int) : View</text></g><!--class ProductoLista_Controller--><g id="elem_ProductoLista_Controller"><rect codeLine="106" fill="#F1F1F1" height="136.0469" id="ProductoLista_Controller" rx="2.5" ry="2.5" style="stroke:#181818;stroke-width:0.5;" width="356" x="1216" y="209.5"/><ellipse cx="1311.25" cy="225.5" fill="#ADD1B2" rx="11" ry="11" style="stroke:#181818;stroke-width:1.0;"/><path d="M1314.0156,221.375 Q1314.1719,221.1563 1314.3594,221.0469 Q1314.5469,220.9375 1314.7656,220.9375 Q1315.1406,220.9375 1315.375,221.2031 Q1315.6094,221.4531 1315.6094,222.0625 L1315.6094,223.5156 Q1315.6094,224.125 1315.375,224.3906 Q1315.1406,224.6563 1314.7656,224.6563 Q1314.4219,224.6563 1314.2188,224.4531 Q1314.0156,224.2656 1313.9063,223.75 Q1313.8594,223.3906 1313.6719,223.2031 Q1313.3438,222.8281 1312.7344,222.6094 Q1312.125,222.3906 1311.5,222.3906 Q1310.7344,222.3906 1310.0938,222.7188 Q1309.4688,223.0469 1308.9688,223.7969 Q1308.4844,224.5469 1308.4844,225.5781 L1308.4844,226.6719 Q1308.4844,227.9063 1309.375,228.7344 Q1310.2656,229.5469 1311.8594,229.5469 Q1312.7969,229.5469 1313.4531,229.2969 Q1313.8438,229.1406 1314.2656,228.7031 Q1314.5313,228.4375 1314.6719,228.3594 Q1314.8281,228.2813 1315.0313,228.2813 Q1315.3594,228.2813 1315.6094,228.5469 Q1315.875,228.7969 1315.875,229.1406 Q1315.875,229.4844 1315.5313,229.8906 Q1315.0313,230.4688 1314.2344,230.7969 Q1313.1563,231.25 1311.8594,231.25 Q1310.3438,231.25 1309.1406,230.625 Q1308.1563,230.125 1307.4688,229.0625 Q1306.7813,227.9844 1306.7813,226.7031 L1306.7813,225.5469 Q1306.7813,224.2188 1307.3906,223.0781 Q1308.0156,221.9219 1309.1094,221.3125 Q1310.2031,220.6875 1311.4375,220.6875 Q1312.1719,220.6875 1312.8125,220.8594 Q1313.4688,221.0156 1314.0156,221.375 Z " fill="#000000"/><text fill="#000000" font-family="sans-serif" font-size="14" lengthAdjust="spacing" textLength="157" x="1331.75" y="231.2285">ProductoLista_Controller</text><line style="stroke:#181818;stroke-width:0.5;" x1="1217" x2="1571" y1="241.5" y2="241.5"/><line style="stroke:#181818;stroke-width:0.5;" x1="1217" x2="1571" y1="249.5" y2="249.5"/><ellipse cx="1227" cy="263.8047" fill="#84BE84" rx="3" ry="3" style="stroke:#038048;stroke-width:1.0;"/><text fill="#000000" font-family="sans-serif" font-size="14" lengthAdjust="spacing" textLength="230" x="1236" y="268.0332">eliminarProducto(id : int) : Response</text><ellipse cx="1227" cy="281.4141" fill="#84BE84" rx="3" ry="3" style="stroke:#038048;stroke-width:1.0;"/><text fill="#000000" font-family="sans-serif" font-size="14" lengthAdjust="spacing" textLength="196" x="1236" y="285.6426">mostrarProductos() : Collection</text><ellipse cx="1227" cy="299.0234" fill="#84BE84" rx="3" ry="3" style="stroke:#038048;stroke-width:1.0;"/><text fill="#000000" font-family="sans-serif" font-size="14" lengthAdjust="spacing" textLength="202" x="1236" y="303.252">obtenerCategorias() : Collection</text><ellipse cx="1227" cy="316.6328" fill="#84BE84" rx="3" ry="3" style="stroke:#038048;stroke-width:1.0;"/><text fill="#000000" font-family="sans-serif" font-size="14" lengthAdjust="spacing" textLength="330" x="1236" y="320.8613">obtenerPorCategoria(request : Request) : Collection</text><ellipse cx="1227" cy="334.2422" fill="#84BE84" rx="3" ry="3" style="stroke:#038048;stroke-width:1.0;"/><text fill="#000000" font-family="sans-serif" font-size="14" lengthAdjust="spacing" textLength="306" x="1236" y="338.4707">guardarProducto(request : Request) : Response</text></g><!--class RegisterController--><g id="elem_RegisterController"><rect codeLine="85" fill="#F1F1F1" height="65.6094" id="RegisterController" rx="2.5" ry="2.5" style="stroke:#181818;stroke-width:0.5;" width="273" x="299.5" y="244.5"/><ellipse cx="374.25" cy="260.5" fill="#ADD1B2" rx="11" ry="11" style="stroke:#181818;stroke-width:1.0;"/><path d="M377.0156,256.375 Q377.1719,256.1563 377.3594,256.0469 Q377.5469,255.9375 377.7656,255.9375 Q378.1406,255.9375 378.375,256.2031 Q378.6094,256.4531 378.6094,257.0625 L378.6094,258.5156 Q378.6094,259.125 378.375,259.3906 Q378.1406,259.6563 377.7656,259.6563 Q377.4219,259.6563 377.2188,259.4531 Q377.0156,259.2656 376.9063,258.75 Q376.8594,258.3906 376.6719,258.2031 Q376.3438,257.8281 375.7344,257.6094 Q375.125,257.3906 374.5,257.3906 Q373.7344,257.3906 373.0938,257.7188 Q372.4688,258.0469 371.9688,258.7969 Q371.4844,259.5469 371.4844,260.5781 L371.4844,261.6719 Q371.4844,262.9063 372.375,263.7344 Q373.2656,264.5469 374.8594,264.5469 Q375.7969,264.5469 376.4531,264.2969 Q376.8438,264.1406 377.2656,263.7031 Q377.5313,263.4375 377.6719,263.3594 Q377.8281,263.2813 378.0313,263.2813 Q378.3594,263.2813 378.6094,263.5469 Q378.875,263.7969 378.875,264.1406 Q378.875,264.4844 378.5313,264.8906 Q378.0313,265.4688 377.2344,265.7969 Q376.1563,266.25 374.8594,266.25 Q373.3438,266.25 372.1406,265.625 Q371.1563,265.125 370.4688,264.0625 Q369.7813,262.9844 369.7813,261.7031 L369.7813,260.5469 Q369.7813,259.2188 370.3906,258.0781 Q371.0156,256.9219 372.1094,256.3125 Q373.2031,255.6875 374.4375,255.6875 Q375.1719,255.6875 375.8125,255.8594 Q376.4688,256.0156 377.0156,256.375 Z " fill="#000000"/><text fill="#000000" font-family="sans-serif" font-size="14" lengthAdjust="spacing" textLength="115" x="394.75" y="266.2285">RegisterController</text><line style="stroke:#181818;stroke-width:0.5;" x1="300.5" x2="571.5" y1="276.5" y2="276.5"/><line style="stroke:#181818;stroke-width:0.5;" x1="300.5" x2="571.5" y1="284.5" y2="284.5"/><ellipse cx="310.5" cy="298.8047" fill="#84BE84" rx="3" ry="3" style="stroke:#038048;stroke-width:1.0;"/><text fill="#000000" font-family="sans-serif" font-size="14" lengthAdjust="spacing" textLength="247" x="319.5" y="303.0332">register(request : Request) : Response</text></g><!--class LoginController--><g id="elem_LoginController"><rect codeLine="89" fill="#F1F1F1" height="83.2188" id="LoginController" rx="2.5" ry="2.5" style="stroke:#181818;stroke-width:0.5;" width="272" x="608" y="236"/><ellipse cx="691.25" cy="252" fill="#ADD1B2" rx="11" ry="11" style="stroke:#181818;stroke-width:1.0;"/><path d="M694.0156,247.875 Q694.1719,247.6563 694.3594,247.5469 Q694.5469,247.4375 694.7656,247.4375 Q695.1406,247.4375 695.375,247.7031 Q695.6094,247.9531 695.6094,248.5625 L695.6094,250.0156 Q695.6094,250.625 695.375,250.8906 Q695.1406,251.1563 694.7656,251.1563 Q694.4219,251.1563 694.2188,250.9531 Q694.0156,250.7656 693.9063,250.25 Q693.8594,249.8906 693.6719,249.7031 Q693.3438,249.3281 692.7344,249.1094 Q692.125,248.8906 691.5,248.8906 Q690.7344,248.8906 690.0938,249.2188 Q689.4688,249.5469 688.9688,250.2969 Q688.4844,251.0469 688.4844,252.0781 L688.4844,253.1719 Q688.4844,254.4063 689.375,255.2344 Q690.2656,256.0469 691.8594,256.0469 Q692.7969,256.0469 693.4531,255.7969 Q693.8438,255.6406 694.2656,255.2031 Q694.5313,254.9375 694.6719,254.8594 Q694.8281,254.7813 695.0313,254.7813 Q695.3594,254.7813 695.6094,255.0469 Q695.875,255.2969 695.875,255.6406 Q695.875,255.9844 695.5313,256.3906 Q695.0313,256.9688 694.2344,257.2969 Q693.1563,257.75 691.8594,257.75 Q690.3438,257.75 689.1406,257.125 Q688.1563,256.625 687.4688,255.5625 Q686.7813,254.4844 686.7813,253.2031 L686.7813,252.0469 Q686.7813,250.7188 687.3906,249.5781 Q688.0156,248.4219 689.1094,247.8125 Q690.2031,247.1875 691.4375,247.1875 Q692.1719,247.1875 692.8125,247.3594 Q693.4688,247.5156 694.0156,247.875 Z " fill="#000000"/><text fill="#000000" font-family="sans-serif" font-size="14" lengthAdjust="spacing" textLength="97" x="711.75" y="257.7285">LoginController</text><line style="stroke:#181818;stroke-width:0.5;" x1="609" x2="879" y1="268" y2="268"/><line style="stroke:#181818;stroke-width:0.5;" x1="609" x2="879" y1="276" y2="276"/><ellipse cx="619" cy="290.3047" fill="#84BE84" rx="3" ry="3" style="stroke:#038048;stroke-width:1.0;"/><text fill="#000000" font-family="sans-serif" font-size="14" lengthAdjust="spacing" textLength="229" x="628" y="294.5332">login(request : Request) : Response</text><ellipse cx="619" cy="307.9141" fill="#84BE84" rx="3" ry="3" style="stroke:#038048;stroke-width:1.0;"/><text fill="#000000" font-family="sans-serif" font-size="14" lengthAdjust="spacing" textLength="246" x="628" y="312.1426">destroy(request : Request) : Response</text></g><!--entity vi--><g id="elem_vi"><rect fill="#F1F1F1" height="47.6094" rx="2.5" ry="2.5" style="stroke:#181818;stroke-width:0.5;" width="78" x="799" y="42"/><rect fill="#F1F1F1" height="10" style="stroke:#181818;stroke-width:0.5;" width="15" x="857" y="47"/><rect fill="#F1F1F1" height="2" style="stroke:#181818;stroke-width:0.5;" width="4" x="855" y="49"/><rect fill="#F1F1F1" height="2" style="stroke:#181818;stroke-width:0.5;" width="4" x="855" y="53"/><text fill="#000000" font-family="sans-serif" font-size="14" lengthAdjust="spacing" textLength="38" x="814" y="76.5332">Vistas</text></g><!--link User to ListaCompra--><g id="link_User_ListaCompra"><path codeLine="67" d="M1818.81,617.32 C1835.15,641.39 1853.61,668.59 1871.5,694.94 " fill="none" id="User-ListaCompra" style="stroke:#181818;stroke-width:1.0;"/><text fill="#000000" font-family="sans-serif" font-size="13" lengthAdjust="spacing" textLength="28" x="1849" y="661.4951">tiene</text><text fill="#000000" font-family="sans-serif" font-size="13" lengthAdjust="spacing" textLength="7" x="1815.9616" y="638.1772">1</text><text fill="#000000" font-family="sans-serif" font-size="13" lengthAdjust="spacing" textLength="20" x="1845.6383" y="684.188">0..*</text></g><!--link Supermercado to ListaCompra--><g id="link_Supermercado_ListaCompra"><path codeLine="68" d="M2026.28,599.11 C2016.79,627.07 2005.04,661.68 1993.75,694.94 " fill="none" id="Supermercado-ListaCompra" style="stroke:#181818;stroke-width:1.0;"/><text fill="#000000" font-family="sans-serif" font-size="13" lengthAdjust="spacing" textLength="60" x="2008" y="661.4951">categoriza</text><text fill="#000000" font-family="sans-serif" font-size="13" lengthAdjust="spacing" textLength="7" x="2016.4501" y="620.7789">1</text><text fill="#000000" font-family="sans-serif" font-size="13" lengthAdjust="spacing" textLength="20" x="1975.7199" y="684.188">0..*</text></g><!--link ListaCompra to ProductoLista--><g id="link_ListaCompra_ProductoLista"><path codeLine="69" d="M1958.1,937 C1959.16,961.99 1960.29,988.66 1961.4,1014.71 " fill="none" id="ListaCompra-ProductoLista" style="stroke:#181818;stroke-width:1.0;"/><text fill="#000000" font-family="sans-serif" font-size="13" lengthAdjust="spacing" textLength="49" x="1961" y="981.4951">contiene</text><text fill="#000000" font-family="sans-serif" font-size="13" lengthAdjust="spacing" textLength="7" x="1951.1975" y="958.3758">1</text><text fill="#000000" font-family="sans-serif" font-size="13" lengthAdjust="spacing" textLength="20" x="1940.5959" y="1004.2524">0..*</text></g><!--link RegisterController to Controller--><g id="link_RegisterController_Controller"><path codeLine="115" d="M474.08,310.7 C537.01,363.93 647.4969,457.3756 702.6969,504.0656 " fill="none" id="RegisterController-to-Controller" style="stroke:#181818;stroke-width:1.0;"/><polygon fill="none" points="716.44,515.69,706.5717,499.4846,698.8221,508.6466,716.44,515.69" style="stroke:#181818;stroke-width:1.0;"/></g><!--link LoginController to Controller--><g id="link_LoginController_Controller"><path codeLine="116" d="M744,319.2 C744,374.58 744,453.82 744,498 " fill="none" id="LoginController-to-Controller" style="stroke:#181818;stroke-width:1.0;"/><polygon fill="none" points="744,516,750,498,738,498,744,516" style="stroke:#181818;stroke-width:1.0;"/></g><!--link ListaCompra_Controller to Controller--><g id="link_ListaCompra_Controller_Controller"><path codeLine="117" d="M943.62,363.06 C931.55,373.08 919.46,383.22 908,393 C858.13,435.56 814.5576,474.7304 782.5876,503.8004 " fill="none" id="ListaCompra_Controller-to-Controller" style="stroke:#181818;stroke-width:1.0;"/><polygon fill="none" points="769.27,515.91,786.6241,508.2396,778.5511,499.3612,769.27,515.91" style="stroke:#181818;stroke-width:1.0;"/></g><!--link ProductoLista_Controller to Controller--><g id="link_ProductoLista_Controller_Controller"><path codeLine="118" d="M1252.04,345.52 C1234.13,352.24 1215.83,358.3 1198,363 C1078.68,394.44 1030.74,334.69 922,393 C912.82,397.92 914.47,403.74 907,411 C865.45,451.36 826.3604,481.1502 792.1804,505.4502 " fill="none" id="ProductoLista_Controller-to-Controller" style="stroke:#181818;stroke-width:1.0;"/><polygon fill="none" points="777.51,515.88,795.657,510.3403,788.7038,500.5601,777.51,515.88" style="stroke:#181818;stroke-width:1.0;"/></g><!--link Supermercado_Controller to Controller--><g id="link_Supermercado_Controller_Controller"><path codeLine="119" d="M191.37,310.62 C217.8,327.42 251.49,347.63 283,363 C429.1,434.27 594.7663,491.0322 679.5863,518.5122 " fill="none" id="Supermercado_Controller-to-Controller" style="stroke:#181818;stroke-width:1.0;"/><polygon fill="none" points="696.71,524.06,681.4355,512.8043,677.737,524.2202,696.71,524.06" style="stroke:#181818;stroke-width:1.0;"/></g><!--link RegisterController to User--><g id="link_RegisterController_User"><path codeLine="124" d="M482.21,310.53 C511.89,329.31 552.04,351.55 591,363 C767.14,414.78 826.86,341.2 1003,393 C1019.03,397.71 1019.84,406.75 1036,411 C1095.33,426.59 1529.45,400.72 1588,419 C1618.54,428.53 1643.6575,441.7371 1670.2175,459.5571 " fill="none" id="RegisterController-to-User" style="stroke:#181818;stroke-width:1.0;stroke-dasharray:7.0,7.0;"/><polygon fill="#181818" points="1675.2,462.9,1669.9549,454.564,1671.0479,460.1142,1665.4977,461.2073,1675.2,462.9" style="stroke:#181818;stroke-width:1.0;"/><text fill="#000000" font-family="sans-serif" font-size="13" lengthAdjust="spacing" textLength="34" x="1037" y="407.4951">utiliza</text></g><!--link LoginController to User--><g id="link_LoginController_User"><path codeLine="125" d="M799.68,319.01 C824.39,335.11 854.5,352.32 884,363 C966.86,393.01 1004.81,347.04 1080,393 C1088.42,398.15 1084.25,406.44 1093,411 C1117.39,423.72 1561.75,410.78 1588,419 C1618.53,428.56 1643.6475,441.7671 1670.2075,459.5871 " fill="none" id="LoginController-to-User" style="stroke:#181818;stroke-width:1.0;stroke-dasharray:7.0,7.0;"/><polygon fill="#181818" points="1675.19,462.93,1669.9449,454.594,1671.0379,460.1442,1665.4877,461.2373,1675.19,462.93" style="stroke:#181818;stroke-width:1.0;"/><text fill="#000000" font-family="sans-serif" font-size="13" lengthAdjust="spacing" textLength="34" x="1094" y="407.4951">utiliza</text></g><!--link ListaCompra_Controller to ListaCompra--><g id="link_ListaCompra_Controller_ListaCompra"><path codeLine="126" d="M1180.77,357.05 C1186.84,359.28 1192.93,361.28 1199,363 C1302.89,392.37 2096.96,338.59 2169,419 C2227.72,484.54 2204.43,536.45 2169,617 C2156.5,645.4 2141.7586,667.091 2120.3586,690.391 " fill="none" id="ListaCompra_Controller-to-ListaCompra" style="stroke:#181818;stroke-width:1.0;stroke-dasharray:7.0,7.0;"/><polygon fill="#181818" points="2116.3,694.81,2125.334,690.8873,2119.6822,691.1275,2119.442,685.4758,2116.3,694.81" style="stroke:#181818;stroke-width:1.0;"/><text fill="#000000" font-family="sans-serif" font-size="13" lengthAdjust="spacing" textLength="34" x="2205" y="545.4951">utiliza</text></g><!--link ListaCompra_Controller to User--><g id="link_ListaCompra_Controller_User"><path codeLine="127" d="M1180.58,356.1 C1186.73,358.61 1192.88,360.93 1199,363 C1364.44,419.04 1424.95,356.36 1588,419 C1616.46,429.93 1639.9436,442.763 1665.5436,459.673 " fill="none" id="ListaCompra_Controller-to-User" style="stroke:#181818;stroke-width:1.0;stroke-dasharray:7.0,7.0;"/><polygon fill="#181818" points="1670.55,462.98,1665.245,454.682,1666.378,460.2242,1660.8358,461.3572,1670.55,462.98" style="stroke:#181818;stroke-width:1.0;"/><text fill="#000000" font-family="sans-serif" font-size="13" lengthAdjust="spacing" textLength="34" x="1560" y="407.4951">utiliza</text></g><!--link ListaCompra_Controller to Supermercado--><g id="link_ListaCompra_Controller_Supermercado"><path codeLine="128" d="M1180.85,356.79 C1186.89,359.1 1192.96,361.18 1199,363 C1508.49,456.08 1630.1,284.58 1924,419 C1954.26,432.84 1977.3888,453.069 1998.3388,476.479 " fill="none" id="ListaCompra_Controller-to-Supermercado" style="stroke:#181818;stroke-width:1.0;stroke-dasharray:7.0,7.0;"/><polygon fill="#181818" points="2002.34,480.95,1999.3189,471.576,1999.0057,477.2241,1993.3575,476.9109,2002.34,480.95" style="stroke:#181818;stroke-width:1.0;"/><text fill="#000000" font-family="sans-serif" font-size="13" lengthAdjust="spacing" textLength="34" x="1890" y="407.4951">utiliza</text></g><!--link ListaCompra_Controller to ProductoLista--><g id="link_ListaCompra_Controller_ProductoLista"><path codeLine="129" d="M1180.75,357.12 C1186.82,359.33 1192.92,361.31 1199,363 C1311.47,394.22 2177.58,325.92 2248,419 C2324.71,520.39 2170.27,934.54 2169,937 C2155.14,963.82 2141.2515,985.3714 2122.3515,1010.1214 " fill="none" id="ListaCompra_Controller-to-ProductoLista" style="stroke:#181818;stroke-width:1.0;stroke-dasharray:7.0,7.0;"/><polygon fill="#181818" points="2118.71,1014.89,2127.3513,1010.1647,2121.7446,1010.9162,2120.9932,1005.3094,2118.71,1014.89" style="stroke:#181818;stroke-width:1.0;"/><text fill="#000000" font-family="sans-serif" font-size="13" lengthAdjust="spacing" textLength="34" x="2253" y="661.4951">utiliza</text></g><!--link ProductoLista_Controller to ProductoLista--><g id="link_ProductoLista_Controller_ProductoLista"><path codeLine="130" d="M1572.28,288.44 C1859.03,306.42 2395.84,349.11 2446,419 C2540.35,550.44 2347.15,971.7 2336,985 C2287.88,1042.4 2223.0212,1081.4048 2156.6912,1110.2848 " fill="none" id="ProductoLista_Controller-to-ProductoLista" style="stroke:#181818;stroke-width:1.0;stroke-dasharray:7.0,7.0;"/><polygon fill="#181818" points="2151.19,1112.68,2161.0386,1112.7546,2155.7743,1110.684,2157.845,1105.4197,2151.19,1112.68" style="stroke:#181818;stroke-width:1.0;"/><text fill="#000000" font-family="sans-serif" font-size="13" lengthAdjust="spacing" textLength="34" x="2457" y="661.4951">utiliza</text></g><!--link ProductoLista_Controller to ListaCompra--><g id="link_ProductoLista_Controller_ListaCompra"><path codeLine="131" d="M1572.21,288.09 C1830.64,303.77 2284.38,338.72 2336,393 C2419.49,480.79 2423.05,565.45 2354,665 C2307.61,731.88 2233.3339,767.4311 2156.8839,788.0011 " fill="none" id="ProductoLista_Controller-to-ListaCompra" style="stroke:#181818;stroke-width:1.0;stroke-dasharray:7.0,7.0;"/><polygon fill="#181818" points="2151.09,789.56,2160.8202,791.0842,2155.9183,788.2609,2158.7416,783.359,2151.09,789.56" style="stroke:#181818;stroke-width:1.0;"/><text fill="#000000" font-family="sans-serif" font-size="13" lengthAdjust="spacing" textLength="34" x="2403" y="545.4951">utiliza</text></g><!--link Supermercado_Controller to Supermercado--><g id="link_Supermercado_Controller_Supermercado"><path codeLine="132" d="M184.27,310.59 C210.9,329.4 247.14,351.63 283,363 C570.12,454.01 658.04,399.08 959,411 C985.79,412.06 1899.23,408.74 1924,419 C1955.15,431.9 1978.7008,452.4417 1999.6808,476.3317 " fill="none" id="Supermercado_Controller-to-Supermercado" style="stroke:#181818;stroke-width:1.0;stroke-dasharray:7.0,7.0;"/><polygon fill="#181818" points="2003.64,480.84,2000.7068,471.4381,2000.3407,477.0831,1994.6957,476.717,2003.64,480.84" style="stroke:#181818;stroke-width:1.0;"/><text fill="#000000" font-family="sans-serif" font-size="13" lengthAdjust="spacing" textLength="34" x="960" y="407.4951">utiliza</text></g><!--link vi to ListaCompra_Controller--><g id="link_vi_ListaCompra_Controller"><path codeLine="144" d="M861.28,90.22 C885.94,114.83 922.1122,150.9125 959.0522,187.7625 " fill="none" id="vi-to-ListaCompra_Controller" style="stroke:#181818;stroke-width:1.0;stroke-dasharray:7.0,7.0;"/><polygon fill="#181818" points="963.3,192,959.7533,182.8119,959.7602,188.4688,954.1033,188.4757,963.3,192" style="stroke:#181818;stroke-width:1.0;"/><text fill="#000000" font-family="sans-serif" font-size="13" lengthAdjust="spacing" textLength="36" x="906" y="136.4951">invoca</text></g><!--link vi to ListaCompra_Controller--><g id="link_vi_ListaCompra_Controller"><path codeLine="145" d="M877.03,79.77 C900.42,88.85 929.65,102.83 951,122 C972.8,141.57 988.3959,162.0414 1003.4059,186.7614 " fill="none" id="vi-to-ListaCompra_Controller-1" style="stroke:#181818;stroke-width:1.0;stroke-dasharray:7.0,7.0;"/><polygon fill="#181818" points="1006.52,191.89,1005.2679,182.1211,1003.9249,187.6162,998.4298,186.2732,1006.52,191.89" style="stroke:#181818;stroke-width:1.0;"/><text fill="#000000" font-family="sans-serif" font-size="13" lengthAdjust="spacing" textLength="36" x="969" y="136.4951">invoca</text></g><!--link vi to LoginController--><g id="link_vi_LoginController"><path codeLine="146" d="M827.58,90.22 C811.81,125.38 784.1061,187.1258 764.6561,230.4758 " fill="none" id="vi-to-LoginController" style="stroke:#181818;stroke-width:1.0;stroke-dasharray:7.0,7.0;"/><polygon fill="#181818" points="762.2,235.95,769.5337,229.3761,764.2468,231.3881,762.2347,226.1012,762.2,235.95" style="stroke:#181818;stroke-width:1.0;"/><text fill="#000000" font-family="sans-serif" font-size="13" lengthAdjust="spacing" textLength="36" x="813" y="136.4951">invoca</text></g><!--link vi to RegisterController--><g id="link_vi_RegisterController"><path codeLine="147" d="M798.93,75.02 C748.63,86.4 659.54,110.15 591,148 C543.72,174.11 501.3648,211.3304 471.7848,240.0504 " fill="none" id="vi-to-RegisterController" style="stroke:#181818;stroke-width:1.0;stroke-dasharray:7.0,7.0;"/><polygon fill="#181818" points="467.48,244.23,476.7235,240.8304,471.0673,240.747,471.1507,235.0908,467.48,244.23" style="stroke:#181818;stroke-width:1.0;"/><text fill="#000000" font-family="sans-serif" font-size="13" lengthAdjust="spacing" textLength="36" x="643" y="136.4951">invoca</text></g><!--link vi to ProductoLista_Controller--><g id="link_vi_ProductoLista_Controller"><path codeLine="148" d="M877.23,71.16 C944.94,79.35 1087.11,101.01 1198,148 C1235.46,163.88 1268.6167,183.574 1301.1367,205.804 " fill="none" id="vi-to-ProductoLista_Controller" style="stroke:#181818;stroke-width:1.0;stroke-dasharray:7.0,7.0;"/><polygon fill="#181818" points="1306.09,209.19,1300.9174,200.8088,1301.9622,206.3684,1296.4027,207.4132,1306.09,209.19" style="stroke:#181818;stroke-width:1.0;"/><text fill="#000000" font-family="sans-serif" font-size="13" lengthAdjust="spacing" textLength="36" x="1171" y="136.4951">invoca</text></g><!--link vi to Supermercado_Controller--><g id="link_vi_Supermercado_Controller"><path codeLine="149" d="M798.84,69.71 C688.16,77.84 375.12,104.21 283,148 C235.92,170.38 197.5015,209.4962 172.0115,239.6762 " fill="none" id="vi-to-Supermercado_Controller" style="stroke:#181818;stroke-width:1.0;stroke-dasharray:7.0,7.0;"/><polygon fill="#181818" points="168.14,244.26,177.0031,239.9653,171.3662,240.4401,170.8914,234.8033,168.14,244.26" style="stroke:#181818;stroke-width:1.0;"/><text fill="#000000" font-family="sans-serif" font-size="13" lengthAdjust="spacing" textLength="36" x="360" y="136.4951">invoca</text></g><!--SRC=[fLRVRzCm47xFNs7rfHsm2budCMdg9e74fch0NYlNEJAB90wsip5W_pld7sdYn6dJpUg3Qt_VtVdk_3bpyd7oIERaajDCqeAI5CWgfmeKMOcYoa4BmaH9RY6dZ8iIrwzABO6iwQyQD2Za7k7eEFIyyN96haKAkJZIcHOLmVYtGcjHa9HBO1hFa2GLPJzf1cJcpCx8toGXXE6v5VckGE9_WkCjBpNXgPihBNcPaP8M42n0GNaUh5Hevb58npizTNivLvggIp1PbNHnGiummNdk8t9qADChO-qE9F_16JLRDqBlvfRr86n4pst4N-iAP06IqLJiYrmKMmd71fM1lh54k-jCXUw_62FEGioxcTUOqqrtGNL2tXoEirOrbLpO44nzFBvZn6vr4-4WbHHfpRHGqRCn2LJQy1Scmi_fko0myzy5OyYTOphsLaZPq7dQAGtkYQs64jocyiPZ4HG23nqQ2VrqyhpsPx60iKpRYcwOfSSJksboqf8OBJLFgKUdm7X1SrBXTU6YPm6F4wmWCeDos5H1JmrIvzEptbN7Sk8fGlNHD0x5s1q6SbxmiaMDrUERI8LQx-s9VcXh8LTKGoOafmlMpFOmTsXroLKbIhxDOPghYqpM5VQTQXqQsZMjcaQOTtKOh0uNLi5CKQnmxSRimmmhGcRlbyiti-2Esd56D4VdI0lKup2jIS4VKyfmF-I6xUguM4hhDNb- -KkmGYDIv1YjFCx6JlGx5hpoqwsvXapxc-O1EGfDL6GtBQ2vX-fUF7OXaOhR2kw2kAZr_SopdOTRo31Ls41zusXU-hs514o3qcZxrirExDGqcdAQQTtij5bal8mPpCt616jM3p0vuccIwx67OPYnq_wxqCY7oQHXtd5uj4aqarQlDKm8nBnQNdkdI0fFdPW4cXBAUmi87VK4l8NvgCVqEz924H4xu7MIahLwj5U4kZ8NJV3Wmm2VvBGJxQ6gU07x119AnkaPGTMoYk2leb6qtqOUKYZjLsXx2KdiRjYM-NSUulhzxaO45s_D8N2qQ4Fec4BqaKxy1aA-2bBnvBzuLH8_kXdBvNbFz9tCrfhdHf_ZoPZ4ZAUdeGwUXUdKLtWD7wgZg8Etg4CThV2hgVlIDDOiXu_wueVppWhY2zzCHtOFblcwnCP5_NQh17yFtBsapoFTxP5FOPidIEjbAao6qRy7mUZnm97Ux-F6RbSVDrhgFd2ii0tkFm00]--></g></svg>