<?xml version="1.0" encoding="us-ascii" standalone="no"?><svg xmlns="http://www.w3.org/2000/svg" xmlns:xlink="http://www.w3.org/1999/xlink" contentStyleType="text/css" height="775px" preserveAspectRatio="none" style="width:1016px;height:775px;background:#FFFFFF;" version="1.1" viewBox="0 0 1016 775" width="1016px" zoomAndPan="magnify"><defs/><g><rect fill="none" height="22.6406" style="stroke:none;stroke-width:1.0;" width="983.5" x="15" y="12.4551"/><ellipse cx="147.5" cy="50.0957" fill="#222222" rx="10" ry="10" style="stroke:#222222;stroke-width:1.0;"/><rect fill="#F1F1F1" height="35.0938" rx="12.5" ry="12.5" style="stroke:#181818;stroke-width:0.5;" width="242" x="26.5" y="80.0957"/><text fill="#000000" font-family="sans-serif" font-size="12" lengthAdjust="spacing" textLength="222" x="36.5" y="102.5527">Accede a la vista de la lista de la compra</text><rect fill="#F1F1F1" height="35.0938" rx="12.5" ry="12.5" style="stroke:#181818;stroke-width:0.5;" width="184" x="55.5" y="135.1895"/><text fill="#000000" font-family="sans-serif" font-size="12" lengthAdjust="spacing" textLength="164" x="65.5" y="157.6465">Hace clic en "A&#241;adir producto"</text><rect fill="#F1F1F1" height="35.0938" rx="12.5" ry="12.5" style="stroke:#181818;stroke-width:0.5;" width="253" x="21" y="245.377"/><text fill="#000000" font-family="sans-serif" font-size="12" lengthAdjust="spacing" textLength="233" x="31" y="267.834">Selecciona categor&#237;a y confirma b&#250;squeda</text><rect fill="#F1F1F1" height="35.0938" rx="12.5" ry="12.5" style="stroke:#181818;stroke-width:0.5;" width="190" x="52.5" y="465.752"/><text fill="#000000" font-family="sans-serif" font-size="12" lengthAdjust="spacing" textLength="170" x="62.5" y="488.209">Selecciona producto y cantidad</text><rect fill="#F1F1F1" height="35.0938" rx="12.5" ry="12.5" style="stroke:#181818;stroke-width:0.5;" width="194" x="50.5" y="520.8457"/><text fill="#000000" font-family="sans-serif" font-size="12" lengthAdjust="spacing" textLength="174" x="60.5" y="543.3027">Hace clic en "Guardar producto"</text><rect fill="#F1F1F1" height="35.0938" rx="12.5" ry="12.5" style="stroke:#181818;stroke-width:0.5;" width="176" x="59.5" y="686.127"/><text fill="#000000" font-family="sans-serif" font-size="12" lengthAdjust="spacing" textLength="156" x="69.5" y="708.584">Visualiza producto agregado</text><ellipse cx="147.5" cy="752.2207" fill="none" rx="11" ry="11" style="stroke:#222222;stroke-width:1.0;"/><ellipse cx="147.5" cy="752.2207" fill="#222222" rx="6" ry="6" style="stroke:#222222;stroke-width:1.0;"/><line style="stroke:#000000;stroke-width:1.5;" x1="15" x2="15" y1="12.4551" y2="763.2207"/><rect fill="#F1F1F1" height="35.0938" rx="12.5" ry="12.5" style="stroke:#181818;stroke-width:0.5;" width="245" x="313.5" y="190.2832"/><text fill="#000000" font-family="sans-serif" font-size="12" lengthAdjust="spacing" textLength="225" x="323.5" y="212.7402">Solicita selecci&#243;n de categor&#237;a al usuario</text><rect fill="#F1F1F1" height="35.0938" rx="12.5" ry="12.5" style="stroke:#181818;stroke-width:0.5;" width="304" x="284" y="300.4707"/><text fill="#000000" font-family="sans-serif" font-size="12" lengthAdjust="spacing" textLength="284" x="294" y="322.9277">Hace petici&#243;n a la API de productos con la categor&#237;a</text><rect fill="#F1F1F1" height="35.0938" rx="12.5" ry="12.5" style="stroke:#181818;stroke-width:0.5;" width="291" x="290.5" y="410.6582"/><text fill="#000000" font-family="sans-serif" font-size="12" lengthAdjust="spacing" textLength="271" x="300.5" y="433.1152">Muestra lista de productos disponibles al usuario</text><rect fill="#F1F1F1" height="35.0938" rx="12.5" ry="12.5" style="stroke:#181818;stroke-width:0.5;" width="240" x="316" y="575.9395"/><text fill="#000000" font-family="sans-serif" font-size="12" lengthAdjust="spacing" textLength="220" x="326" y="598.3965">Guarda producto en tabla producto_lista</text><rect fill="#F1F1F1" height="35.0938" rx="12.5" ry="12.5" style="stroke:#181818;stroke-width:0.5;" width="227" x="322.5" y="631.0332"/><text fill="#000000" font-family="sans-serif" font-size="12" lengthAdjust="spacing" textLength="207" x="332.5" y="653.4902">Actualiza vista de la lista de la compra</text><line style="stroke:#000000;stroke-width:1.5;" x1="278" x2="278" y1="12.4551" y2="763.2207"/><rect fill="#F1F1F1" height="35.0938" rx="12.5" ry="12.5" style="stroke:#181818;stroke-width:0.5;" width="395" x="598" y="355.5645"/><text fill="#000000" font-family="sans-serif" font-size="12" lengthAdjust="spacing" textLength="375" x="608" y="378.0215">Devuelve lista de productos (nombre, precio, imagen) a la aplicaci&#243;n</text><line style="stroke:#000000;stroke-width:1.5;" x1="592" x2="592" y1="12.4551" y2="763.2207"/><line style="stroke:#000000;stroke-width:1.5;" x1="997" x2="997" y1="12.4551" y2="763.2207"/><line style="stroke:#181818;stroke-width:1.0;" x1="147.5" x2="147.5" y1="60.0957" y2="80.0957"/><polygon fill="#181818" points="143.5,70.0957,147.5,80.0957,151.5,70.0957,147.5,74.0957" style="stroke:#181818;stroke-width:1.0;"/><line style="stroke:#181818;stroke-width:1.0;" x1="147.5" x2="147.5" y1="115.1895" y2="135.1895"/><polygon fill="#181818" points="143.5,125.1895,147.5,135.1895,151.5,125.1895,147.5,129.1895" style="stroke:#181818;stroke-width:1.0;"/><line style="stroke:#181818;stroke-width:1.0;" x1="147.5" x2="147.5" y1="500.8457" y2="520.8457"/><polygon fill="#181818" points="143.5,510.8457,147.5,520.8457,151.5,510.8457,147.5,514.8457" style="stroke:#181818;stroke-width:1.0;"/><line style="stroke:#181818;stroke-width:1.0;" x1="147.5" x2="147.5" y1="721.2207" y2="741.2207"/><polygon fill="#181818" points="143.5,731.2207,147.5,741.2207,151.5,731.2207,147.5,735.2207" style="stroke:#181818;stroke-width:1.0;"/><line style="stroke:#181818;stroke-width:1.0;" x1="436" x2="436" y1="611.0332" y2="631.0332"/><polygon fill="#181818" points="432,621.0332,436,631.0332,440,621.0332,436,625.0332" style="stroke:#181818;stroke-width:1.0;"/><line style="stroke:#181818;stroke-width:1.0;" x1="147.5" x2="147.5" y1="170.2832" y2="175.2832"/><line style="stroke:#181818;stroke-width:1.0;" x1="147.5" x2="436" y1="175.2832" y2="175.2832"/><line style="stroke:#181818;stroke-width:1.0;" x1="436" x2="436" y1="175.2832" y2="190.2832"/><polygon fill="#181818" points="432,180.2832,436,190.2832,440,180.2832,436,184.2832" style="stroke:#181818;stroke-width:1.0;"/><line style="stroke:#181818;stroke-width:1.0;" x1="436" x2="436" y1="225.377" y2="230.377"/><line style="stroke:#181818;stroke-width:1.0;" x1="436" x2="147.5" y1="230.377" y2="230.377"/><line style="stroke:#181818;stroke-width:1.0;" x1="147.5" x2="147.5" y1="230.377" y2="245.377"/><polygon fill="#181818" points="143.5,235.377,147.5,245.377,151.5,235.377,147.5,239.377" style="stroke:#181818;stroke-width:1.0;"/><line style="stroke:#181818;stroke-width:1.0;" x1="147.5" x2="147.5" y1="280.4707" y2="285.4707"/><line style="stroke:#181818;stroke-width:1.0;" x1="147.5" x2="436" y1="285.4707" y2="285.4707"/><line style="stroke:#181818;stroke-width:1.0;" x1="436" x2="436" y1="285.4707" y2="300.4707"/><polygon fill="#181818" points="432,290.4707,436,300.4707,440,290.4707,436,294.4707" style="stroke:#181818;stroke-width:1.0;"/><line style="stroke:#181818;stroke-width:1.0;" x1="436" x2="436" y1="335.5645" y2="340.5645"/><line style="stroke:#181818;stroke-width:1.0;" x1="436" x2="795.5" y1="340.5645" y2="340.5645"/><line style="stroke:#181818;stroke-width:1.0;" x1="795.5" x2="795.5" y1="340.5645" y2="355.5645"/><polygon fill="#181818" points="791.5,345.5645,795.5,355.5645,799.5,345.5645,795.5,349.5645" style="stroke:#181818;stroke-width:1.0;"/><line style="stroke:#181818;stroke-width:1.0;" x1="795.5" x2="795.5" y1="390.6582" y2="395.6582"/><line style="stroke:#181818;stroke-width:1.0;" x1="795.5" x2="436" y1="395.6582" y2="395.6582"/><line style="stroke:#181818;stroke-width:1.0;" x1="436" x2="436" y1="395.6582" y2="410.6582"/><polygon fill="#181818" points="432,400.6582,436,410.6582,440,400.6582,436,404.6582" style="stroke:#181818;stroke-width:1.0;"/><line style="stroke:#181818;stroke-width:1.0;" x1="436" x2="436" y1="445.752" y2="450.752"/><line style="stroke:#181818;stroke-width:1.0;" x1="436" x2="147.5" y1="450.752" y2="450.752"/><line style="stroke:#181818;stroke-width:1.0;" x1="147.5" x2="147.5" y1="450.752" y2="465.752"/><polygon fill="#181818" points="143.5,455.752,147.5,465.752,151.5,455.752,147.5,459.752" style="stroke:#181818;stroke-width:1.0;"/><line style="stroke:#181818;stroke-width:1.0;" x1="147.5" x2="147.5" y1="555.9395" y2="560.9395"/><line style="stroke:#181818;stroke-width:1.0;" x1="147.5" x2="436" y1="560.9395" y2="560.9395"/><line style="stroke:#181818;stroke-width:1.0;" x1="436" x2="436" y1="560.9395" y2="575.9395"/><polygon fill="#181818" points="432,565.9395,436,575.9395,440,565.9395,436,569.9395" style="stroke:#181818;stroke-width:1.0;"/><line style="stroke:#181818;stroke-width:1.0;" x1="436" x2="436" y1="666.127" y2="671.127"/><line style="stroke:#181818;stroke-width:1.0;" x1="436" x2="147.5" y1="671.127" y2="671.127"/><line style="stroke:#181818;stroke-width:1.0;" x1="147.5" x2="147.5" y1="671.127" y2="686.127"/><polygon fill="#181818" points="143.5,676.127,147.5,686.127,151.5,676.127,147.5,680.127" style="stroke:#181818;stroke-width:1.0;"/><text fill="#000000" font-family="sans-serif" font-size="18" lengthAdjust="spacing" textLength="62" x="115.5" y="31.1406">Usuario</text><text fill="#000000" font-family="sans-serif" font-size="18" lengthAdjust="spacing" textLength="81" x="394.5" y="31.1406">Aplicaci&#243;n</text><text fill="#000000" font-family="sans-serif" font-size="18" lengthAdjust="spacing" textLength="27" x="781" y="31.1406">API</text><!--SRC=[ZPBFIiGm4CRlVOgm9uLzWlPK47GFmiAYLvacOnb8asp-59I-aWVnvhKlvhHrsq95lMKcyttpcqcwXv30a-so4C77B2-bH8K2X0RH4YS5HtpMgxEqZVDGPFaTI1HIanHenAxitq6H5yvRbMIqkoBhIiUt8Ad_C5sMdon7n3u1DSenErXAY5XRtx-102tIHCJYcIq_JVNMmBhuXKdCC_a6HDL_XdD21PkU8wF3I5ExSR3oU1ZwNa33u3CEDdiFDiS3os-mJQXRN1QmgAwCRIgFUquXm-q5DL2ZkPwQm8AnWRfF6AA7dqmL1MSDLHh3FxPnqGsx01D9WTgyooth5FpsBbF5OiQg29LUCayZQ35yZvX0q-lVdsF5-qZXMpHtWDfZ3Ohd2j6wBm00]--></g></svg>