<?xml version="1.0" encoding="us-ascii" standalone="no"?><svg xmlns="http://www.w3.org/2000/svg" xmlns:xlink="http://www.w3.org/1999/xlink" contentStyleType="text/css" height="344px" preserveAspectRatio="none" style="width:1619px;height:344px;background:#FFFFFF;" version="1.1" viewBox="0 0 1619 344" width="1619px" zoomAndPan="magnify"><defs/><g><!--cluster Controller--><g id="cluster_Controller"><path d="M8.5,6 L80.5,6 A3.75,3.75 0 0 1 83,8.5 L90,29.6094 L1609.5,29.6094 A2.5,2.5 0 0 1 1612,32.1094 L1612,334.5 A2.5,2.5 0 0 1 1609.5,337 L8.5,337 A2.5,2.5 0 0 1 6,334.5 L6,8.5 A2.5,2.5 0 0 1 8.5,6 " fill="none" style="stroke:#000000;stroke-width:1.5;"/><line style="stroke:#000000;stroke-width:1.5;" x1="6" x2="90" y1="29.6094" y2="29.6094"/><text fill="#000000" font-family="sans-serif" font-size="14" font-weight="bold" lengthAdjust="spacing" textLength="71" x="10" y="22.5332">Controller</text></g><!--cluster Auth--><g id="cluster_Auth"><path d="M977.5,158 L1010.5,158 A3.75,3.75 0 0 1 1013,160.5 L1020,181.6094 L1585.5,181.6094 A2.5,2.5 0 0 1 1588,184.1094 L1588,290.5 A2.5,2.5 0 0 1 1585.5,293 L977.5,293 A2.5,2.5 0 0 1 975,290.5 L975,160.5 A2.5,2.5 0 0 1 977.5,158 " fill="none" style="stroke:#000000;stroke-width:1.5;"/><line style="stroke:#000000;stroke-width:1.5;" x1="975" x2="1020" y1="181.6094" y2="181.6094"/><text fill="#000000" font-family="sans-serif" font-size="14" font-weight="bold" lengthAdjust="spacing" textLength="32" x="979" y="174.5332">Auth</text></g><!--class Controller--><g id="elem_Controller"><rect codeLine="7" fill="#F1F1F1" height="48" id="Controller" rx="2.5" ry="2.5" style="stroke:#181818;stroke-width:0.5;" width="94" x="731" y="42"/><ellipse cx="746" cy="58" fill="#A9DCDF" rx="11" ry="11" style="stroke:#181818;stroke-width:1.0;"/><path d="M748.1875,59.7656 L744.0469,59.7656 L743.625,60.7969 L744.0469,60.7969 Q744.6563,60.7969 744.9219,61.0313 Q745.1875,61.2656 745.1875,61.6563 Q745.1875,62.0313 744.9219,62.2656 Q744.6563,62.5 744.0469,62.5 L741.75,62.5 Q741.1406,62.5 740.8906,62.2656 Q740.625,62.0313 740.625,61.6406 Q740.625,61.2656 740.9063,61.0313 Q741.1719,60.7813 741.7969,60.7969 L744.4688,54.1406 L743.3594,54.1406 Q742.75,54.1406 742.4844,53.9063 Q742.2188,53.6719 742.2188,53.2813 Q742.2188,52.9063 742.4844,52.6719 Q742.75,52.4375 743.3594,52.4375 L747.0313,52.4375 L750.4219,60.7969 Q751.0156,60.7969 751.2031,60.9375 Q751.5938,61.2031 751.5938,61.6563 Q751.5938,62.0313 751.3281,62.2656 Q751.0781,62.5 750.4688,62.5 L748.1719,62.5 Q747.5625,62.5 747.2969,62.2656 Q747.0313,62.0313 747.0313,61.6406 Q747.0313,61.2656 747.2969,61.0313 Q747.5625,60.7969 748.1719,60.7969 L748.5938,60.7969 L748.1875,59.7656 Z M747.4688,58.0625 L746.1094,54.6875 L744.7344,58.0625 L747.4688,58.0625 Z " fill="#000000"/><text fill="#000000" font-family="sans-serif" font-size="14" font-style="italic" lengthAdjust="spacing" textLength="62" x="760" y="63.7285">Controller</text><line style="stroke:#181818;stroke-width:0.5;" x1="732" x2="824" y1="74" y2="74"/><line style="stroke:#181818;stroke-width:0.5;" x1="732" x2="824" y1="82" y2="82"/></g><!--class Supermercado_Controller--><g id="elem_Supermercado_Controller"><rect codeLine="21" fill="#F1F1F1" height="65.6094" id="Supermercado_Controller" rx="2.5" ry="2.5" style="stroke:#181818;stroke-width:0.5;" width="242" x="22" y="202.5"/><ellipse cx="58.15" cy="218.5" fill="#ADD1B2" rx="11" ry="11" style="stroke:#181818;stroke-width:1.0;"/><path d="M60.9156,214.375 Q61.0719,214.1563 61.2594,214.0469 Q61.4469,213.9375 61.6656,213.9375 Q62.0406,213.9375 62.275,214.2031 Q62.5094,214.4531 62.5094,215.0625 L62.5094,216.5156 Q62.5094,217.125 62.275,217.3906 Q62.0406,217.6563 61.6656,217.6563 Q61.3219,217.6563 61.1188,217.4531 Q60.9156,217.2656 60.8063,216.75 Q60.7594,216.3906 60.5719,216.2031 Q60.2438,215.8281 59.6344,215.6094 Q59.025,215.3906 58.4,215.3906 Q57.6344,215.3906 56.9938,215.7188 Q56.3688,216.0469 55.8688,216.7969 Q55.3844,217.5469 55.3844,218.5781 L55.3844,219.6719 Q55.3844,220.9063 56.275,221.7344 Q57.1656,222.5469 58.7594,222.5469 Q59.6969,222.5469 60.3531,222.2969 Q60.7438,222.1406 61.1656,221.7031 Q61.4313,221.4375 61.5719,221.3594 Q61.7281,221.2813 61.9313,221.2813 Q62.2594,221.2813 62.5094,221.5469 Q62.775,221.7969 62.775,222.1406 Q62.775,222.4844 62.4313,222.8906 Q61.9313,223.4688 61.1344,223.7969 Q60.0563,224.25 58.7594,224.25 Q57.2438,224.25 56.0406,223.625 Q55.0563,223.125 54.3688,222.0625 Q53.6813,220.9844 53.6813,219.7031 L53.6813,218.5469 Q53.6813,217.2188 54.2906,216.0781 Q54.9156,214.9219 56.0094,214.3125 Q57.1031,213.6875 58.3375,213.6875 Q59.0719,213.6875 59.7125,213.8594 Q60.3688,214.0156 60.9156,214.375 Z " fill="#000000"/><text fill="#000000" font-family="sans-serif" font-size="14" lengthAdjust="spacing" textLength="163" x="76.85" y="224.2285">Supermercado_Controller</text><line style="stroke:#181818;stroke-width:0.5;" x1="23" x2="263" y1="234.5" y2="234.5"/><line style="stroke:#181818;stroke-width:0.5;" x1="23" x2="263" y1="242.5" y2="242.5"/><ellipse cx="33" cy="256.8047" fill="#84BE84" rx="3" ry="3" style="stroke:#038048;stroke-width:1.0;"/><text fill="#000000" font-family="sans-serif" font-size="14" lengthAdjust="spacing" textLength="216" x="42" y="261.0332">showSupermercados() : Collection</text></g><!--class ListaCompra_Controller--><g id="elem_ListaCompra_Controller"><rect codeLine="25" fill="#F1F1F1" height="171.2656" id="ListaCompra_Controller" rx="2.5" ry="2.5" style="stroke:#181818;stroke-width:0.5;" width="265" x="299.5" y="150"/><ellipse cx="352.75" cy="166" fill="#ADD1B2" rx="11" ry="11" style="stroke:#181818;stroke-width:1.0;"/><path d="M355.5156,161.875 Q355.6719,161.6563 355.8594,161.5469 Q356.0469,161.4375 356.2656,161.4375 Q356.6406,161.4375 356.875,161.7031 Q357.1094,161.9531 357.1094,162.5625 L357.1094,164.0156 Q357.1094,164.625 356.875,164.8906 Q356.6406,165.1563 356.2656,165.1563 Q355.9219,165.1563 355.7188,164.9531 Q355.5156,164.7656 355.4063,164.25 Q355.3594,163.8906 355.1719,163.7031 Q354.8438,163.3281 354.2344,163.1094 Q353.625,162.8906 353,162.8906 Q352.2344,162.8906 351.5938,163.2188 Q350.9688,163.5469 350.4688,164.2969 Q349.9844,165.0469 349.9844,166.0781 L349.9844,167.1719 Q349.9844,168.4063 350.875,169.2344 Q351.7656,170.0469 353.3594,170.0469 Q354.2969,170.0469 354.9531,169.7969 Q355.3438,169.6406 355.7656,169.2031 Q356.0313,168.9375 356.1719,168.8594 Q356.3281,168.7813 356.5313,168.7813 Q356.8594,168.7813 357.1094,169.0469 Q357.375,169.2969 357.375,169.6406 Q357.375,169.9844 357.0313,170.3906 Q356.5313,170.9688 355.7344,171.2969 Q354.6563,171.75 353.3594,171.75 Q351.8438,171.75 350.6406,171.125 Q349.6563,170.625 348.9688,169.5625 Q348.2813,168.4844 348.2813,167.2031 L348.2813,166.0469 Q348.2813,164.7188 348.8906,163.5781 Q349.5156,162.4219 350.6094,161.8125 Q351.7031,161.1875 352.9375,161.1875 Q353.6719,161.1875 354.3125,161.3594 Q354.9688,161.5156 355.5156,161.875 Z " fill="#000000"/><text fill="#000000" font-family="sans-serif" font-size="14" lengthAdjust="spacing" textLength="150" x="373.25" y="171.7285">ListaCompra_Controller</text><line style="stroke:#181818;stroke-width:0.5;" x1="300.5" x2="563.5" y1="182" y2="182"/><rect fill="none" height="6" style="stroke:#C82930;stroke-width:1.0;" width="6" x="307.5" y="193.3047"/><text fill="#000000" font-family="sans-serif" font-size="14" lengthAdjust="spacing" textLength="66" x="319.5" y="200.5332">int user_id</text><line style="stroke:#181818;stroke-width:1.0;" x1="300.5" x2="563.5" y1="207.6094" y2="207.6094"/><ellipse cx="310.5" cy="221.9141" fill="#84BE84" rx="3" ry="3" style="stroke:#038048;stroke-width:1.0;"/><text fill="#000000" font-family="sans-serif" font-size="14" lengthAdjust="spacing" textLength="134" x="319.5" y="226.1426">showListView() : View</text><ellipse cx="310.5" cy="239.5234" fill="#84BE84" rx="3" ry="3" style="stroke:#038048;stroke-width:1.0;"/><text fill="#000000" font-family="sans-serif" font-size="14" lengthAdjust="spacing" textLength="239" x="319.5" y="243.752">create(request : Request) : Response</text><ellipse cx="310.5" cy="257.1328" fill="#84BE84" rx="3" ry="3" style="stroke:#038048;stroke-width:1.0;"/><text fill="#000000" font-family="sans-serif" font-size="14" lengthAdjust="spacing" textLength="141" x="319.5" y="261.3613">getListas() : Collection</text><ellipse cx="310.5" cy="274.7422" fill="#84BE84" rx="3" ry="3" style="stroke:#038048;stroke-width:1.0;"/><text fill="#000000" font-family="sans-serif" font-size="14" lengthAdjust="spacing" textLength="179" x="319.5" y="278.9707">contarProductos(id : int) : int</text><ellipse cx="310.5" cy="292.3516" fill="#84BE84" rx="3" ry="3" style="stroke:#038048;stroke-width:1.0;"/><text fill="#000000" font-family="sans-serif" font-size="14" lengthAdjust="spacing" textLength="193" x="319.5" y="296.5801">borrarLista(id : int) : Response</text><ellipse cx="310.5" cy="309.9609" fill="#84BE84" rx="3" ry="3" style="stroke:#038048;stroke-width:1.0;"/><text fill="#000000" font-family="sans-serif" font-size="14" lengthAdjust="spacing" textLength="167" x="319.5" y="314.1895">mostrarLista(id : int) : View</text></g><!--class ProductoLista_Controller--><g id="elem_ProductoLista_Controller"><rect codeLine="36" fill="#F1F1F1" height="136.0469" id="ProductoLista_Controller" rx="2.5" ry="2.5" style="stroke:#181818;stroke-width:0.5;" width="356" x="600" y="167.5"/><ellipse cx="695.25" cy="183.5" fill="#ADD1B2" rx="11" ry="11" style="stroke:#181818;stroke-width:1.0;"/><path d="M698.0156,179.375 Q698.1719,179.1563 698.3594,179.0469 Q698.5469,178.9375 698.7656,178.9375 Q699.1406,178.9375 699.375,179.2031 Q699.6094,179.4531 699.6094,180.0625 L699.6094,181.5156 Q699.6094,182.125 699.375,182.3906 Q699.1406,182.6563 698.7656,182.6563 Q698.4219,182.6563 698.2188,182.4531 Q698.0156,182.2656 697.9063,181.75 Q697.8594,181.3906 697.6719,181.2031 Q697.3438,180.8281 696.7344,180.6094 Q696.125,180.3906 695.5,180.3906 Q694.7344,180.3906 694.0938,180.7188 Q693.4688,181.0469 692.9688,181.7969 Q692.4844,182.5469 692.4844,183.5781 L692.4844,184.6719 Q692.4844,185.9063 693.375,186.7344 Q694.2656,187.5469 695.8594,187.5469 Q696.7969,187.5469 697.4531,187.2969 Q697.8438,187.1406 698.2656,186.7031 Q698.5313,186.4375 698.6719,186.3594 Q698.8281,186.2813 699.0313,186.2813 Q699.3594,186.2813 699.6094,186.5469 Q699.875,186.7969 699.875,187.1406 Q699.875,187.4844 699.5313,187.8906 Q699.0313,188.4688 698.2344,188.7969 Q697.1563,189.25 695.8594,189.25 Q694.3438,189.25 693.1406,188.625 Q692.1563,188.125 691.4688,187.0625 Q690.7813,185.9844 690.7813,184.7031 L690.7813,183.5469 Q690.7813,182.2188 691.3906,181.0781 Q692.0156,179.9219 693.1094,179.3125 Q694.2031,178.6875 695.4375,178.6875 Q696.1719,178.6875 696.8125,178.8594 Q697.4688,179.0156 698.0156,179.375 Z " fill="#000000"/><text fill="#000000" font-family="sans-serif" font-size="14" lengthAdjust="spacing" textLength="157" x="715.75" y="189.2285">ProductoLista_Controller</text><line style="stroke:#181818;stroke-width:0.5;" x1="601" x2="955" y1="199.5" y2="199.5"/><line style="stroke:#181818;stroke-width:0.5;" x1="601" x2="955" y1="207.5" y2="207.5"/><ellipse cx="611" cy="221.8047" fill="#84BE84" rx="3" ry="3" style="stroke:#038048;stroke-width:1.0;"/><text fill="#000000" font-family="sans-serif" font-size="14" lengthAdjust="spacing" textLength="230" x="620" y="226.0332">eliminarProducto(id : int) : Response</text><ellipse cx="611" cy="239.4141" fill="#84BE84" rx="3" ry="3" style="stroke:#038048;stroke-width:1.0;"/><text fill="#000000" font-family="sans-serif" font-size="14" lengthAdjust="spacing" textLength="196" x="620" y="243.6426">mostrarProductos() : Collection</text><ellipse cx="611" cy="257.0234" fill="#84BE84" rx="3" ry="3" style="stroke:#038048;stroke-width:1.0;"/><text fill="#000000" font-family="sans-serif" font-size="14" lengthAdjust="spacing" textLength="202" x="620" y="261.252">obtenerCategorias() : Collection</text><ellipse cx="611" cy="274.6328" fill="#84BE84" rx="3" ry="3" style="stroke:#038048;stroke-width:1.0;"/><text fill="#000000" font-family="sans-serif" font-size="14" lengthAdjust="spacing" textLength="330" x="620" y="278.8613">obtenerPorCategoria(request : Request) : Collection</text><ellipse cx="611" cy="292.2422" fill="#84BE84" rx="3" ry="3" style="stroke:#038048;stroke-width:1.0;"/><text fill="#000000" font-family="sans-serif" font-size="14" lengthAdjust="spacing" textLength="306" x="620" y="296.4707">guardarProducto(request : Request) : Response</text></g><!--class RegisterController--><g id="elem_RegisterController"><rect codeLine="10" fill="#F1F1F1" height="83.2188" id="RegisterController" rx="2.5" ry="2.5" style="stroke:#181818;stroke-width:0.5;" width="273" x="1298.5" y="194"/><ellipse cx="1373.25" cy="210" fill="#ADD1B2" rx="11" ry="11" style="stroke:#181818;stroke-width:1.0;"/><path d="M1376.0156,205.875 Q1376.1719,205.6563 1376.3594,205.5469 Q1376.5469,205.4375 1376.7656,205.4375 Q1377.1406,205.4375 1377.375,205.7031 Q1377.6094,205.9531 1377.6094,206.5625 L1377.6094,208.0156 Q1377.6094,208.625 1377.375,208.8906 Q1377.1406,209.1563 1376.7656,209.1563 Q1376.4219,209.1563 1376.2188,208.9531 Q1376.0156,208.7656 1375.9063,208.25 Q1375.8594,207.8906 1375.6719,207.7031 Q1375.3438,207.3281 1374.7344,207.1094 Q1374.125,206.8906 1373.5,206.8906 Q1372.7344,206.8906 1372.0938,207.2188 Q1371.4688,207.5469 1370.9688,208.2969 Q1370.4844,209.0469 1370.4844,210.0781 L1370.4844,211.1719 Q1370.4844,212.4063 1371.375,213.2344 Q1372.2656,214.0469 1373.8594,214.0469 Q1374.7969,214.0469 1375.4531,213.7969 Q1375.8438,213.6406 1376.2656,213.2031 Q1376.5313,212.9375 1376.6719,212.8594 Q1376.8281,212.7813 1377.0313,212.7813 Q1377.3594,212.7813 1377.6094,213.0469 Q1377.875,213.2969 1377.875,213.6406 Q1377.875,213.9844 1377.5313,214.3906 Q1377.0313,214.9688 1376.2344,215.2969 Q1375.1563,215.75 1373.8594,215.75 Q1372.3438,215.75 1371.1406,215.125 Q1370.1563,214.625 1369.4688,213.5625 Q1368.7813,212.4844 1368.7813,211.2031 L1368.7813,210.0469 Q1368.7813,208.7188 1369.3906,207.5781 Q1370.0156,206.4219 1371.1094,205.8125 Q1372.2031,205.1875 1373.4375,205.1875 Q1374.1719,205.1875 1374.8125,205.3594 Q1375.4688,205.5156 1376.0156,205.875 Z " fill="#000000"/><text fill="#000000" font-family="sans-serif" font-size="14" lengthAdjust="spacing" textLength="115" x="1393.75" y="215.7285">RegisterController</text><line style="stroke:#181818;stroke-width:0.5;" x1="1299.5" x2="1570.5" y1="226" y2="226"/><polygon fill="none" points="1309.5,235.3047,1313.5,239.3047,1309.5,243.3047,1305.5,239.3047" style="stroke:#B38D22;stroke-width:1.0;"/><text fill="#000000" font-family="sans-serif" font-size="14" lengthAdjust="spacing" textLength="75" x="1318.5" y="244.5332">authService</text><line style="stroke:#181818;stroke-width:0.5;" x1="1299.5" x2="1570.5" y1="251.6094" y2="251.6094"/><ellipse cx="1309.5" cy="265.9141" fill="#84BE84" rx="3" ry="3" style="stroke:#038048;stroke-width:1.0;"/><text fill="#000000" font-family="sans-serif" font-size="14" lengthAdjust="spacing" textLength="247" x="1318.5" y="270.1426">register(request : Request) : Response</text></g><!--class LoginController--><g id="elem_LoginController"><rect codeLine="15" fill="#F1F1F1" height="83.2188" id="LoginController" rx="2.5" ry="2.5" style="stroke:#181818;stroke-width:0.5;" width="272" x="991" y="194"/><ellipse cx="1074.25" cy="210" fill="#ADD1B2" rx="11" ry="11" style="stroke:#181818;stroke-width:1.0;"/><path d="M1077.0156,205.875 Q1077.1719,205.6563 1077.3594,205.5469 Q1077.5469,205.4375 1077.7656,205.4375 Q1078.1406,205.4375 1078.375,205.7031 Q1078.6094,205.9531 1078.6094,206.5625 L1078.6094,208.0156 Q1078.6094,208.625 1078.375,208.8906 Q1078.1406,209.1563 1077.7656,209.1563 Q1077.4219,209.1563 1077.2188,208.9531 Q1077.0156,208.7656 1076.9063,208.25 Q1076.8594,207.8906 1076.6719,207.7031 Q1076.3438,207.3281 1075.7344,207.1094 Q1075.125,206.8906 1074.5,206.8906 Q1073.7344,206.8906 1073.0938,207.2188 Q1072.4688,207.5469 1071.9688,208.2969 Q1071.4844,209.0469 1071.4844,210.0781 L1071.4844,211.1719 Q1071.4844,212.4063 1072.375,213.2344 Q1073.2656,214.0469 1074.8594,214.0469 Q1075.7969,214.0469 1076.4531,213.7969 Q1076.8438,213.6406 1077.2656,213.2031 Q1077.5313,212.9375 1077.6719,212.8594 Q1077.8281,212.7813 1078.0313,212.7813 Q1078.3594,212.7813 1078.6094,213.0469 Q1078.875,213.2969 1078.875,213.6406 Q1078.875,213.9844 1078.5313,214.3906 Q1078.0313,214.9688 1077.2344,215.2969 Q1076.1563,215.75 1074.8594,215.75 Q1073.3438,215.75 1072.1406,215.125 Q1071.1563,214.625 1070.4688,213.5625 Q1069.7813,212.4844 1069.7813,211.2031 L1069.7813,210.0469 Q1069.7813,208.7188 1070.3906,207.5781 Q1071.0156,206.4219 1072.1094,205.8125 Q1073.2031,205.1875 1074.4375,205.1875 Q1075.1719,205.1875 1075.8125,205.3594 Q1076.4688,205.5156 1077.0156,205.875 Z " fill="#000000"/><text fill="#000000" font-family="sans-serif" font-size="14" lengthAdjust="spacing" textLength="97" x="1094.75" y="215.7285">LoginController</text><line style="stroke:#181818;stroke-width:0.5;" x1="992" x2="1262" y1="226" y2="226"/><line style="stroke:#181818;stroke-width:0.5;" x1="992" x2="1262" y1="234" y2="234"/><ellipse cx="1002" cy="248.3047" fill="#84BE84" rx="3" ry="3" style="stroke:#038048;stroke-width:1.0;"/><text fill="#000000" font-family="sans-serif" font-size="14" lengthAdjust="spacing" textLength="229" x="1011" y="252.5332">login(request : Request) : Response</text><ellipse cx="1002" cy="265.9141" fill="#84BE84" rx="3" ry="3" style="stroke:#038048;stroke-width:1.0;"/><text fill="#000000" font-family="sans-serif" font-size="14" lengthAdjust="spacing" textLength="246" x="1011" y="270.1426">destroy(request : Request) : Response</text></g><!--reverse link Controller to RegisterController--><g id="link_Controller_RegisterController"><path codeLine="44" d="M843.0219,70.64 C933.6019,76.54 1119.55,94.21 1281,150 C1312.56,160.91 1345.3,177.94 1372.43,193.87 " fill="none" id="Controller-backto-RegisterController" style="stroke:#181818;stroke-width:1.0;"/><polygon fill="none" points="825.06,69.47,842.6319,76.6273,843.4119,64.6527,825.06,69.47" style="stroke:#181818;stroke-width:1.0;"/></g><!--reverse link Controller to LoginController--><g id="link_Controller_LoginController"><path codeLine="45" d="M841.981,89.2051 C884.981,104.5651 932.97,123.19 987,150 C1013.19,163 1040.97,179.21 1064.82,193.96 " fill="none" id="Controller-backto-LoginController" style="stroke:#181818;stroke-width:1.0;"/><polygon fill="none" points="825.03,83.15,839.9626,94.8554,843.9993,83.5547,825.03,83.15" style="stroke:#181818;stroke-width:1.0;"/></g><!--reverse link Controller to ListaCompra_Controller--><g id="link_Controller_ListaCompra_Controller"><path codeLine="46" d="M714.1594,92.0901 C674.2694,108.0601 632.54,125.68 583,150 C576.93,152.98 570.76,156.09 564.56,159.28 " fill="none" id="Controller-backto-ListaCompra_Controller" style="stroke:#181818;stroke-width:1.0;"/><polygon fill="none" points="730.87,85.4,711.9294,86.5199,716.3895,97.6603,730.87,85.4" style="stroke:#181818;stroke-width:1.0;"/></g><!--reverse link Controller to ProductoLista_Controller--><g id="link_Controller_ProductoLista_Controller"><path codeLine="47" d="M778,108.29 C778,128.25 778,140.01 778,167.32 " fill="none" id="Controller-backto-ProductoLista_Controller" style="stroke:#181818;stroke-width:1.0;"/><polygon fill="none" points="778,90.29,772,108.29,784,108.29,778,90.29" style="stroke:#181818;stroke-width:1.0;"/></g><!--reverse link Controller to Supermercado_Controller--><g id="link_Controller_Supermercado_Controller"><path codeLine="48" d="M712.6881,69.9758 C622.6281,75.0158 439.53,91.42 282,150 C247.72,162.75 212.55,184.22 186.17,202.33 " fill="none" id="Controller-backto-Supermercado_Controller" style="stroke:#181818;stroke-width:1.0;"/><polygon fill="none" points="730.66,68.97,712.3529,63.9851,713.0234,75.9664,730.66,68.97" style="stroke:#181818;stroke-width:1.0;"/></g><!--SRC=[ZPFFReCm3CRlF8NL7TeAyGBJTgZe4QrLE-rQkS6YqO0m9woQjhxx4c23jkcVN8ZYdx_FDiaOdg-kO0npYHbZWP0In3bgqX11l7XvNIsIsNoniiWDZQ12yOuPmIXMfM6LvyGZ-0u20DngmoWC2AkieO-xu7_Qh3Oxbm1sjU2ACgaDSP_GXG4UqD9huayfg3iAkSCdJ1yrQGEFLg7PJPkjhbIfM_eG36mIbSdIun7cBd27caLJUyxgwoxhphurNzSLSK4iC5MRio92lLFx8Q8dJZ1sZ31IbSTYYUqVOrLKZETQaImDr9fu8zFs8EezNEQRf7qZxpPjI32XeJkw2ZCoZRkdGATZYq5UiafhOMmJChMGhMVQVbfegvYH6vKZuDYeKEuoUR2kwi4u_lmQrZDSocKXoxwkswvz1xukrTPGQQ-h7LccME9LQgbwq3_WqyIiHau7rTxwAyqa1bq__KIHvqrve9CNuIEyDyq3Nle77lJ2KmWEmIy0]--></g></svg>