<?xml version="1.0" encoding="us-ascii" standalone="no"?><svg xmlns="http://www.w3.org/2000/svg" xmlns:xlink="http://www.w3.org/1999/xlink" contentStyleType="text/css" height="720px" preserveAspectRatio="none" style="width:567px;height:720px;background:#FFFFFF;" version="1.1" viewBox="0 0 567 720" width="567px" zoomAndPan="magnify"><defs/><g><rect fill="none" height="22.6406" style="stroke:none;stroke-width:1.0;" width="534.5" x="15" y="12.4551"/><ellipse cx="128" cy="50.0957" fill="#222222" rx="10" ry="10" style="stroke:#222222;stroke-width:1.0;"/><rect fill="#F1F1F1" height="35.0938" rx="12.5" ry="12.5" style="stroke:#181818;stroke-width:0.5;" width="191" x="32.5" y="80.0957"/><text fill="#000000" font-family="sans-serif" font-size="12" lengthAdjust="spacing" textLength="171" x="42.5" y="102.5527">Accede a la vista de "Mis listas"</text><rect fill="#F1F1F1" height="35.0938" rx="12.5" ry="12.5" style="stroke:#181818;stroke-width:0.5;" width="191" x="32.5" y="135.1895"/><text fill="#000000" font-family="sans-serif" font-size="12" lengthAdjust="spacing" textLength="171" x="42.5" y="157.6465">Hace clic en "Crear nueva lista"</text><rect fill="#F1F1F1" height="35.0938" rx="12.5" ry="12.5" style="stroke:#181818;stroke-width:0.5;" width="160" x="48" y="300.4707"/><text fill="#000000" font-family="sans-serif" font-size="12" lengthAdjust="spacing" textLength="140" x="58" y="322.9277">Introduce nombre de lista</text><rect fill="#F1F1F1" height="35.0938" rx="12.5" ry="12.5" style="stroke:#181818;stroke-width:0.5;" width="165" x="45.5" y="355.5645"/><text fill="#000000" font-family="sans-serif" font-size="12" lengthAdjust="spacing" textLength="145" x="55.5" y="378.0215">Selecciona supermercado</text><rect fill="#F1F1F1" height="35.0938" rx="12.5" ry="12.5" style="stroke:#181818;stroke-width:0.5;" width="169" x="43.5" y="410.6582"/><text fill="#000000" font-family="sans-serif" font-size="12" lengthAdjust="spacing" textLength="149" x="53.5" y="433.1152">Hace clic en "Guardar lista"</text><rect fill="#F1F1F1" height="35.0938" rx="12.5" ry="12.5" style="stroke:#181818;stroke-width:0.5;" width="214" x="21" y="631.0332"/><text fill="#000000" font-family="sans-serif" font-size="12" lengthAdjust="spacing" textLength="194" x="31" y="653.4902">Visualiza la nueva lista en el listado</text><ellipse cx="128" cy="697.127" fill="none" rx="11" ry="11" style="stroke:#222222;stroke-width:1.0;"/><ellipse cx="128" cy="697.127" fill="#222222" rx="6" ry="6" style="stroke:#222222;stroke-width:1.0;"/><line style="stroke:#000000;stroke-width:1.5;" x1="15" x2="15" y1="12.4551" y2="708.127"/><rect fill="#F1F1F1" height="35.0938" rx="12.5" ry="12.5" style="stroke:#181818;stroke-width:0.5;" width="216" x="286.5" y="190.2832"/><text fill="#000000" font-family="sans-serif" font-size="12" lengthAdjust="spacing" textLength="196" x="296.5" y="212.7402">Despliega el formulario de creaci&#243;n</text><rect fill="#F1F1F1" height="35.0938" rx="12.5" ry="12.5" style="stroke:#181818;stroke-width:0.5;" width="299" x="245" y="245.377"/><text fill="#000000" font-family="sans-serif" font-size="12" lengthAdjust="spacing" textLength="279" x="255" y="267.834">Solicita nombre de lista y supermercado al usuario</text><rect fill="#F1F1F1" height="35.0938" rx="12.5" ry="12.5" style="stroke:#181818;stroke-width:0.5;" width="142" x="323.5" y="465.752"/><text fill="#000000" font-family="sans-serif" font-size="12" lengthAdjust="spacing" textLength="122" x="333.5" y="488.209">Valida datos recibidos</text><rect fill="#F1F1F1" height="35.0938" rx="12.5" ry="12.5" style="stroke:#181818;stroke-width:0.5;" width="245" x="272" y="520.8457"/><text fill="#000000" font-family="sans-serif" font-size="12" lengthAdjust="spacing" textLength="225" x="282" y="543.3027">Guarda nueva lista en tabla lista_compra</text><rect fill="#F1F1F1" height="35.0938" rx="12.5" ry="12.5" style="stroke:#181818;stroke-width:0.5;" width="235" x="277" y="575.9395"/><text fill="#000000" font-family="sans-serif" font-size="12" lengthAdjust="spacing" textLength="215" x="287" y="598.3965">Actualiza vista con la nueva lista creada</text><line style="stroke:#000000;stroke-width:1.5;" x1="239" x2="239" y1="12.4551" y2="708.127"/><line style="stroke:#000000;stroke-width:1.5;" x1="548" x2="548" y1="12.4551" y2="708.127"/><line style="stroke:#181818;stroke-width:1.0;" x1="128" x2="128" y1="60.0957" y2="80.0957"/><polygon fill="#181818" points="124,70.0957,128,80.0957,132,70.0957,128,74.0957" style="stroke:#181818;stroke-width:1.0;"/><line style="stroke:#181818;stroke-width:1.0;" x1="128" x2="128" y1="115.1895" y2="135.1895"/><polygon fill="#181818" points="124,125.1895,128,135.1895,132,125.1895,128,129.1895" style="stroke:#181818;stroke-width:1.0;"/><line style="stroke:#181818;stroke-width:1.0;" x1="128" x2="128" y1="335.5645" y2="355.5645"/><polygon fill="#181818" points="124,345.5645,128,355.5645,132,345.5645,128,349.5645" style="stroke:#181818;stroke-width:1.0;"/><line style="stroke:#181818;stroke-width:1.0;" x1="128" x2="128" y1="390.6582" y2="410.6582"/><polygon fill="#181818" points="124,400.6582,128,410.6582,132,400.6582,128,404.6582" style="stroke:#181818;stroke-width:1.0;"/><line style="stroke:#181818;stroke-width:1.0;" x1="128" x2="128" y1="666.127" y2="686.127"/><polygon fill="#181818" points="124,676.127,128,686.127,132,676.127,128,680.127" style="stroke:#181818;stroke-width:1.0;"/><line style="stroke:#181818;stroke-width:1.0;" x1="394.5" x2="394.5" y1="225.377" y2="245.377"/><polygon fill="#181818" points="390.5,235.377,394.5,245.377,398.5,235.377,394.5,239.377" style="stroke:#181818;stroke-width:1.0;"/><line style="stroke:#181818;stroke-width:1.0;" x1="394.5" x2="394.5" y1="500.8457" y2="520.8457"/><polygon fill="#181818" points="390.5,510.8457,394.5,520.8457,398.5,510.8457,394.5,514.8457" style="stroke:#181818;stroke-width:1.0;"/><line style="stroke:#181818;stroke-width:1.0;" x1="394.5" x2="394.5" y1="555.9395" y2="575.9395"/><polygon fill="#181818" points="390.5,565.9395,394.5,575.9395,398.5,565.9395,394.5,569.9395" style="stroke:#181818;stroke-width:1.0;"/><line style="stroke:#181818;stroke-width:1.0;" x1="128" x2="128" y1="170.2832" y2="175.2832"/><line style="stroke:#181818;stroke-width:1.0;" x1="128" x2="394.5" y1="175.2832" y2="175.2832"/><line style="stroke:#181818;stroke-width:1.0;" x1="394.5" x2="394.5" y1="175.2832" y2="190.2832"/><polygon fill="#181818" points="390.5,180.2832,394.5,190.2832,398.5,180.2832,394.5,184.2832" style="stroke:#181818;stroke-width:1.0;"/><line style="stroke:#181818;stroke-width:1.0;" x1="394.5" x2="394.5" y1="280.4707" y2="285.4707"/><line style="stroke:#181818;stroke-width:1.0;" x1="394.5" x2="128" y1="285.4707" y2="285.4707"/><line style="stroke:#181818;stroke-width:1.0;" x1="128" x2="128" y1="285.4707" y2="300.4707"/><polygon fill="#181818" points="124,290.4707,128,300.4707,132,290.4707,128,294.4707" style="stroke:#181818;stroke-width:1.0;"/><line style="stroke:#181818;stroke-width:1.0;" x1="128" x2="128" y1="445.752" y2="450.752"/><line style="stroke:#181818;stroke-width:1.0;" x1="128" x2="394.5" y1="450.752" y2="450.752"/><line style="stroke:#181818;stroke-width:1.0;" x1="394.5" x2="394.5" y1="450.752" y2="465.752"/><polygon fill="#181818" points="390.5,455.752,394.5,465.752,398.5,455.752,394.5,459.752" style="stroke:#181818;stroke-width:1.0;"/><line style="stroke:#181818;stroke-width:1.0;" x1="394.5" x2="394.5" y1="611.0332" y2="616.0332"/><line style="stroke:#181818;stroke-width:1.0;" x1="394.5" x2="128" y1="616.0332" y2="616.0332"/><line style="stroke:#181818;stroke-width:1.0;" x1="128" x2="128" y1="616.0332" y2="631.0332"/><polygon fill="#181818" points="124,621.0332,128,631.0332,132,621.0332,128,625.0332" style="stroke:#181818;stroke-width:1.0;"/><text fill="#000000" font-family="sans-serif" font-size="18" lengthAdjust="spacing" textLength="62" x="96" y="31.1406">Usuario</text><text fill="#000000" font-family="sans-serif" font-size="18" lengthAdjust="spacing" textLength="81" x="353" y="31.1406">Aplicaci&#243;n</text><!--SRC=[TP11JiGm34NtFOKrnoYh2YHWmGensv7h66GfZIid6GdKMt44BeRJ3cY64Riuzd_s_yjBhcYYIvSBMkdwWOW30q94E8f_WbUx9yaGMvLtDrt_WCH0KGWumUxM60rIvIDkCpwo3BEtaUJhCorTVyVPQtv3u0YlQbEDRMb3awlNCUS-gul4LoQTHkFMNe7m3hdER1CROL3027KxspVz6kWVKp4DrM_xeszeZamacl02TMNctc71xVnZP8zHWaU2HJCOaumID3jbqvsdq705ntWg3wJJREsKWKfrpCTFlgIfXNqkRQ44l32tbtnInQir7khwRdvoqVaR]--></g></svg>