<?xml version="1.0" encoding="us-ascii" standalone="no"?><svg xmlns="http://www.w3.org/2000/svg" xmlns:xlink="http://www.w3.org/1999/xlink" contentStyleType="text/css" height="929px" preserveAspectRatio="none" style="width:568px;height:929px;background:#FFFFFF;" version="1.1" viewBox="0 0 568 929" width="568px" zoomAndPan="magnify"><defs/><g><!--cluster Model--><g id="cluster_Model"><path d="M8.5,6 L53.5,6 A3.75,3.75 0 0 1 56,8.5 L63,29.6094 L558.5,29.6094 A2.5,2.5 0 0 1 561,32.1094 L561,919.5 A2.5,2.5 0 0 1 558.5,922 L8.5,922 A2.5,2.5 0 0 1 6,919.5 L6,8.5 A2.5,2.5 0 0 1 8.5,6 " fill="none" style="stroke:#000000;stroke-width:1.5;"/><line style="stroke:#000000;stroke-width:1.5;" x1="6" x2="63" y1="29.6094" y2="29.6094"/><text fill="#000000" font-family="sans-serif" font-size="14" font-weight="bold" lengthAdjust="spacing" textLength="44" x="10" y="22.5332">Model</text></g><!--class User--><g id="elem_User"><rect codeLine="7" fill="#F1F1F1" height="153.6563" id="User" rx="2.5" ry="2.5" style="stroke:#181818;stroke-width:0.5;" width="278" x="267" y="42"/><ellipse cx="387.25" cy="58" fill="#ADD1B2" rx="11" ry="11" style="stroke:#181818;stroke-width:1.0;"/><path d="M390.0156,53.875 Q390.1719,53.6563 390.3594,53.5469 Q390.5469,53.4375 390.7656,53.4375 Q391.1406,53.4375 391.375,53.7031 Q391.6094,53.9531 391.6094,54.5625 L391.6094,56.0156 Q391.6094,56.625 391.375,56.8906 Q391.1406,57.1563 390.7656,57.1563 Q390.4219,57.1563 390.2188,56.9531 Q390.0156,56.7656 389.9063,56.25 Q389.8594,55.8906 389.6719,55.7031 Q389.3438,55.3281 388.7344,55.1094 Q388.125,54.8906 387.5,54.8906 Q386.7344,54.8906 386.0938,55.2188 Q385.4688,55.5469 384.9688,56.2969 Q384.4844,57.0469 384.4844,58.0781 L384.4844,59.1719 Q384.4844,60.4063 385.375,61.2344 Q386.2656,62.0469 387.8594,62.0469 Q388.7969,62.0469 389.4531,61.7969 Q389.8438,61.6406 390.2656,61.2031 Q390.5313,60.9375 390.6719,60.8594 Q390.8281,60.7813 391.0313,60.7813 Q391.3594,60.7813 391.6094,61.0469 Q391.875,61.2969 391.875,61.6406 Q391.875,61.9844 391.5313,62.3906 Q391.0313,62.9688 390.2344,63.2969 Q389.1563,63.75 387.8594,63.75 Q386.3438,63.75 385.1406,63.125 Q384.1563,62.625 383.4688,61.5625 Q382.7813,60.4844 382.7813,59.2031 L382.7813,58.0469 Q382.7813,56.7188 383.3906,55.5781 Q384.0156,54.4219 385.1094,53.8125 Q386.2031,53.1875 387.4375,53.1875 Q388.1719,53.1875 388.8125,53.3594 Q389.4688,53.5156 390.0156,53.875 Z " fill="#000000"/><text fill="#000000" font-family="sans-serif" font-size="14" lengthAdjust="spacing" textLength="29" x="407.75" y="63.7285">User</text><line style="stroke:#181818;stroke-width:0.5;" x1="268" x2="544" y1="74" y2="74"/><rect fill="none" height="6" style="stroke:#C82930;stroke-width:1.0;" width="6" x="275" y="85.3047"/><text fill="#000000" font-family="sans-serif" font-size="14" lengthAdjust="spacing" textLength="30" x="287" y="92.5332">int id</text><rect fill="none" height="6" style="stroke:#C82930;stroke-width:1.0;" width="6" x="275" y="102.9141"/><text fill="#000000" font-family="sans-serif" font-size="14" lengthAdjust="spacing" textLength="74" x="287" y="110.1426">string name</text><rect fill="none" height="6" style="stroke:#C82930;stroke-width:1.0;" width="6" x="275" y="120.5234"/><text fill="#000000" font-family="sans-serif" font-size="14" lengthAdjust="spacing" textLength="72" x="287" y="127.752">string email</text><rect fill="none" height="6" style="stroke:#C82930;stroke-width:1.0;" width="6" x="275" y="138.1328"/><text fill="#000000" font-family="sans-serif" font-size="14" lengthAdjust="spacing" textLength="99" x="287" y="145.3613">string password</text><line style="stroke:#181818;stroke-width:1.0;" x1="268" x2="544" y1="152.4375" y2="152.4375"/><ellipse cx="278" cy="166.7422" fill="#84BE84" rx="3" ry="3" style="stroke:#038048;stroke-width:1.0;"/><text fill="#000000" font-family="sans-serif" font-size="14" lengthAdjust="spacing" textLength="184" x="287" y="170.9707">listasDeCompra() : Collection</text><ellipse cx="278" cy="184.3516" fill="#84BE84" rx="3" ry="3" style="stroke:#038048;stroke-width:1.0;"/><text fill="#000000" font-family="sans-serif" font-size="14" lengthAdjust="spacing" textLength="252" x="287" y="188.5801">sendEmailVerificationNotification() : void</text></g><!--class Supermercado--><g id="elem_Supermercado"><rect codeLine="17" fill="#F1F1F1" height="118.4375" id="Supermercado" rx="2.5" ry="2.5" style="stroke:#181818;stroke-width:0.5;" width="210" x="22" y="60"/><ellipse cx="76.25" cy="76" fill="#ADD1B2" rx="11" ry="11" style="stroke:#181818;stroke-width:1.0;"/><path d="M79.0156,71.875 Q79.1719,71.6563 79.3594,71.5469 Q79.5469,71.4375 79.7656,71.4375 Q80.1406,71.4375 80.375,71.7031 Q80.6094,71.9531 80.6094,72.5625 L80.6094,74.0156 Q80.6094,74.625 80.375,74.8906 Q80.1406,75.1563 79.7656,75.1563 Q79.4219,75.1563 79.2188,74.9531 Q79.0156,74.7656 78.9063,74.25 Q78.8594,73.8906 78.6719,73.7031 Q78.3438,73.3281 77.7344,73.1094 Q77.125,72.8906 76.5,72.8906 Q75.7344,72.8906 75.0938,73.2188 Q74.4688,73.5469 73.9688,74.2969 Q73.4844,75.0469 73.4844,76.0781 L73.4844,77.1719 Q73.4844,78.4063 74.375,79.2344 Q75.2656,80.0469 76.8594,80.0469 Q77.7969,80.0469 78.4531,79.7969 Q78.8438,79.6406 79.2656,79.2031 Q79.5313,78.9375 79.6719,78.8594 Q79.8281,78.7813 80.0313,78.7813 Q80.3594,78.7813 80.6094,79.0469 Q80.875,79.2969 80.875,79.6406 Q80.875,79.9844 80.5313,80.3906 Q80.0313,80.9688 79.2344,81.2969 Q78.1563,81.75 76.8594,81.75 Q75.3438,81.75 74.1406,81.125 Q73.1563,80.625 72.4688,79.5625 Q71.7813,78.4844 71.7813,77.2031 L71.7813,76.0469 Q71.7813,74.7188 72.3906,73.5781 Q73.0156,72.4219 74.1094,71.8125 Q75.2031,71.1875 76.4375,71.1875 Q77.1719,71.1875 77.8125,71.3594 Q78.4688,71.5156 79.0156,71.875 Z " fill="#000000"/><text fill="#000000" font-family="sans-serif" font-size="14" lengthAdjust="spacing" textLength="93" x="96.75" y="81.7285">Supermercado</text><line style="stroke:#181818;stroke-width:0.5;" x1="23" x2="231" y1="92" y2="92"/><rect fill="none" height="6" style="stroke:#C82930;stroke-width:1.0;" width="6" x="30" y="103.3047"/><text fill="#000000" font-family="sans-serif" font-size="14" lengthAdjust="spacing" textLength="30" x="42" y="110.5332">int id</text><rect fill="none" height="6" style="stroke:#C82930;stroke-width:1.0;" width="6" x="30" y="120.9141"/><text fill="#000000" font-family="sans-serif" font-size="14" lengthAdjust="spacing" textLength="87" x="42" y="128.1426">string nombre</text><line style="stroke:#181818;stroke-width:1.0;" x1="23" x2="231" y1="135.2188" y2="135.2188"/><ellipse cx="33" cy="149.5234" fill="#84BE84" rx="3" ry="3" style="stroke:#038048;stroke-width:1.0;"/><text fill="#000000" font-family="sans-serif" font-size="14" lengthAdjust="spacing" textLength="184" x="42" y="153.752">listasDeCompra() : Collection</text><ellipse cx="33" cy="167.1328" fill="#84BE84" rx="3" ry="3" style="stroke:#038048;stroke-width:1.0;"/><text fill="#000000" font-family="sans-serif" font-size="14" lengthAdjust="spacing" textLength="126" x="42" y="171.3613">getNombre() : string</text></g><!--class ListaCompra--><g id="elem_ListaCompra"><rect codeLine="25" fill="#F1F1F1" height="241.7031" id="ListaCompra" rx="2.5" ry="2.5" style="stroke:#181818;stroke-width:0.5;" width="396" x="70" y="274"/><ellipse cx="223.75" cy="290" fill="#ADD1B2" rx="11" ry="11" style="stroke:#181818;stroke-width:1.0;"/><path d="M226.5156,285.875 Q226.6719,285.6563 226.8594,285.5469 Q227.0469,285.4375 227.2656,285.4375 Q227.6406,285.4375 227.875,285.7031 Q228.1094,285.9531 228.1094,286.5625 L228.1094,288.0156 Q228.1094,288.625 227.875,288.8906 Q227.6406,289.1563 227.2656,289.1563 Q226.9219,289.1563 226.7188,288.9531 Q226.5156,288.7656 226.4063,288.25 Q226.3594,287.8906 226.1719,287.7031 Q225.8438,287.3281 225.2344,287.1094 Q224.625,286.8906 224,286.8906 Q223.2344,286.8906 222.5938,287.2188 Q221.9688,287.5469 221.4688,288.2969 Q220.9844,289.0469 220.9844,290.0781 L220.9844,291.1719 Q220.9844,292.4063 221.875,293.2344 Q222.7656,294.0469 224.3594,294.0469 Q225.2969,294.0469 225.9531,293.7969 Q226.3438,293.6406 226.7656,293.2031 Q227.0313,292.9375 227.1719,292.8594 Q227.3281,292.7813 227.5313,292.7813 Q227.8594,292.7813 228.1094,293.0469 Q228.375,293.2969 228.375,293.6406 Q228.375,293.9844 228.0313,294.3906 Q227.5313,294.9688 226.7344,295.2969 Q225.6563,295.75 224.3594,295.75 Q222.8438,295.75 221.6406,295.125 Q220.6563,294.625 219.9688,293.5625 Q219.2813,292.4844 219.2813,291.2031 L219.2813,290.0469 Q219.2813,288.7188 219.8906,287.5781 Q220.5156,286.4219 221.6094,285.8125 Q222.7031,285.1875 223.9375,285.1875 Q224.6719,285.1875 225.3125,285.3594 Q225.9688,285.5156 226.5156,285.875 Z " fill="#000000"/><text fill="#000000" font-family="sans-serif" font-size="14" lengthAdjust="spacing" textLength="80" x="244.25" y="295.7285">ListaCompra</text><line style="stroke:#181818;stroke-width:0.5;" x1="71" x2="465" y1="306" y2="306"/><rect fill="none" height="6" style="stroke:#C82930;stroke-width:1.0;" width="6" x="78" y="317.3047"/><text fill="#000000" font-family="sans-serif" font-size="14" lengthAdjust="spacing" textLength="30" x="90" y="324.5332">int id</text><rect fill="none" height="6" style="stroke:#C82930;stroke-width:1.0;" width="6" x="78" y="334.9141"/><text fill="#000000" font-family="sans-serif" font-size="14" lengthAdjust="spacing" textLength="66" x="90" y="342.1426">int user_id</text><rect fill="none" height="6" style="stroke:#C82930;stroke-width:1.0;" width="6" x="78" y="352.5234"/><text fill="#000000" font-family="sans-serif" font-size="14" lengthAdjust="spacing" textLength="129" x="90" y="359.752">int supermercado_id</text><rect fill="none" height="6" style="stroke:#C82930;stroke-width:1.0;" width="6" x="78" y="370.1328"/><text fill="#000000" font-family="sans-serif" font-size="14" lengthAdjust="spacing" textLength="87" x="90" y="377.3613">string nombre</text><line style="stroke:#181818;stroke-width:1.0;" x1="71" x2="465" y1="384.4375" y2="384.4375"/><ellipse cx="81" cy="398.7422" fill="#84BE84" rx="3" ry="3" style="stroke:#038048;stroke-width:1.0;"/><text fill="#000000" font-family="sans-serif" font-size="14" lengthAdjust="spacing" textLength="98" x="90" y="402.9707">usuario() : User</text><ellipse cx="81" cy="416.3516" fill="#84BE84" rx="3" ry="3" style="stroke:#038048;stroke-width:1.0;"/><text fill="#000000" font-family="sans-serif" font-size="14" lengthAdjust="spacing" textLength="206" x="90" y="420.5801">supermercado() : Supermercado</text><ellipse cx="81" cy="433.9609" fill="#84BE84" rx="3" ry="3" style="stroke:#038048;stroke-width:1.0;"/><text fill="#000000" font-family="sans-serif" font-size="14" lengthAdjust="spacing" textLength="147" x="90" y="438.1895">productos() : Collection</text><ellipse cx="81" cy="451.5703" fill="#84BE84" rx="3" ry="3" style="stroke:#038048;stroke-width:1.0;"/><text fill="#000000" font-family="sans-serif" font-size="14" lengthAdjust="spacing" textLength="370" x="90" y="455.7988">crearLista(userId, supermercadoId, nombre) : ListaCompra</text><ellipse cx="81" cy="469.1797" fill="#84BE84" rx="3" ry="3" style="stroke:#038048;stroke-width:1.0;"/><text fill="#000000" font-family="sans-serif" font-size="14" lengthAdjust="spacing" textLength="128" x="90" y="473.4082">borrarLista(id) : void</text><ellipse cx="81" cy="486.7891" fill="#84BE84" rx="3" ry="3" style="stroke:#038048;stroke-width:1.0;"/><text fill="#000000" font-family="sans-serif" font-size="14" lengthAdjust="spacing" textLength="209" x="90" y="491.0176">obtenerListas(userId) : Collection</text><ellipse cx="81" cy="504.3984" fill="#84BE84" rx="3" ry="3" style="stroke:#038048;stroke-width:1.0;"/><text fill="#000000" font-family="sans-serif" font-size="14" lengthAdjust="spacing" textLength="191" x="90" y="508.627">mostrarLista(id) : ListaCompra</text></g><!--class ProductoLista--><g id="elem_ProductoLista"><rect codeLine="40" fill="#F1F1F1" height="312.1406" id="ProductoLista" rx="2.5" ry="2.5" style="stroke:#181818;stroke-width:0.5;" width="366" x="85" y="594"/><ellipse cx="220.25" cy="610" fill="#ADD1B2" rx="11" ry="11" style="stroke:#181818;stroke-width:1.0;"/><path d="M223.0156,605.875 Q223.1719,605.6563 223.3594,605.5469 Q223.5469,605.4375 223.7656,605.4375 Q224.1406,605.4375 224.375,605.7031 Q224.6094,605.9531 224.6094,606.5625 L224.6094,608.0156 Q224.6094,608.625 224.375,608.8906 Q224.1406,609.1563 223.7656,609.1563 Q223.4219,609.1563 223.2188,608.9531 Q223.0156,608.7656 222.9063,608.25 Q222.8594,607.8906 222.6719,607.7031 Q222.3438,607.3281 221.7344,607.1094 Q221.125,606.8906 220.5,606.8906 Q219.7344,606.8906 219.0938,607.2188 Q218.4688,607.5469 217.9688,608.2969 Q217.4844,609.0469 217.4844,610.0781 L217.4844,611.1719 Q217.4844,612.4063 218.375,613.2344 Q219.2656,614.0469 220.8594,614.0469 Q221.7969,614.0469 222.4531,613.7969 Q222.8438,613.6406 223.2656,613.2031 Q223.5313,612.9375 223.6719,612.8594 Q223.8281,612.7813 224.0313,612.7813 Q224.3594,612.7813 224.6094,613.0469 Q224.875,613.2969 224.875,613.6406 Q224.875,613.9844 224.5313,614.3906 Q224.0313,614.9688 223.2344,615.2969 Q222.1563,615.75 220.8594,615.75 Q219.3438,615.75 218.1406,615.125 Q217.1563,614.625 216.4688,613.5625 Q215.7813,612.4844 215.7813,611.2031 L215.7813,610.0469 Q215.7813,608.7188 216.3906,607.5781 Q217.0156,606.4219 218.1094,605.8125 Q219.2031,605.1875 220.4375,605.1875 Q221.1719,605.1875 221.8125,605.3594 Q222.4688,605.5156 223.0156,605.875 Z " fill="#000000"/><text fill="#000000" font-family="sans-serif" font-size="14" lengthAdjust="spacing" textLength="87" x="240.75" y="615.7285">ProductoLista</text><line style="stroke:#181818;stroke-width:0.5;" x1="86" x2="450" y1="626" y2="626"/><rect fill="none" height="6" style="stroke:#C82930;stroke-width:1.0;" width="6" x="93" y="637.3047"/><text fill="#000000" font-family="sans-serif" font-size="14" lengthAdjust="spacing" textLength="30" x="105" y="644.5332">int id</text><rect fill="none" height="6" style="stroke:#C82930;stroke-width:1.0;" width="6" x="93" y="654.9141"/><text fill="#000000" font-family="sans-serif" font-size="14" lengthAdjust="spacing" textLength="118" x="105" y="662.1426">int lista_compra_id</text><rect fill="none" height="6" style="stroke:#C82930;stroke-width:1.0;" width="6" x="93" y="672.5234"/><text fill="#000000" font-family="sans-serif" font-size="14" lengthAdjust="spacing" textLength="151" x="105" y="679.752">string nombre_producto</text><rect fill="none" height="6" style="stroke:#C82930;stroke-width:1.0;" width="6" x="93" y="690.1328"/><text fill="#000000" font-family="sans-serif" font-size="14" lengthAdjust="spacing" textLength="73" x="105" y="697.3613">int cantidad</text><rect fill="none" height="6" style="stroke:#C82930;stroke-width:1.0;" width="6" x="93" y="707.7422"/><text fill="#000000" font-family="sans-serif" font-size="14" lengthAdjust="spacing" textLength="91" x="105" y="714.9707">decimal precio</text><rect fill="none" height="6" style="stroke:#C82930;stroke-width:1.0;" width="6" x="93" y="725.3516"/><text fill="#000000" font-family="sans-serif" font-size="14" lengthAdjust="spacing" textLength="74" x="105" y="732.5801">string notas</text><rect fill="none" height="6" style="stroke:#C82930;stroke-width:1.0;" width="6" x="93" y="742.9609"/><text fill="#000000" font-family="sans-serif" font-size="14" lengthAdjust="spacing" textLength="85" x="105" y="750.1895">string imagen</text><line style="stroke:#181818;stroke-width:1.0;" x1="86" x2="450" y1="757.2656" y2="757.2656"/><ellipse cx="96" cy="771.5703" fill="#84BE84" rx="3" ry="3" style="stroke:#038048;stroke-width:1.0;"/><text fill="#000000" font-family="sans-serif" font-size="14" lengthAdjust="spacing" textLength="195" x="105" y="775.7988">listaDeCompra() : ListaCompra</text><ellipse cx="96" cy="789.1797" fill="#84BE84" rx="3" ry="3" style="stroke:#038048;stroke-width:1.0;"/><text fill="#000000" font-family="sans-serif" font-size="14" lengthAdjust="spacing" textLength="233" x="105" y="793.4082">obtenerProductos(listaId) : Collection</text><ellipse cx="96" cy="806.7891" fill="#84BE84" rx="3" ry="3" style="stroke:#038048;stroke-width:1.0;"/><text fill="#000000" font-family="sans-serif" font-size="14" lengthAdjust="spacing" textLength="177" x="105" y="811.0176">contarProductos(listaId) : int</text><ellipse cx="96" cy="824.3984" fill="#84BE84" rx="3" ry="3" style="stroke:#038048;stroke-width:1.0;"/><text fill="#000000" font-family="sans-serif" font-size="14" lengthAdjust="spacing" textLength="165" x="105" y="828.627">eliminarProducto(id) : void</text><ellipse cx="96" cy="842.0078" fill="#84BE84" rx="3" ry="3" style="stroke:#038048;stroke-width:1.0;"/><text fill="#000000" font-family="sans-serif" font-size="14" lengthAdjust="spacing" textLength="237" x="105" y="846.2363">obtenerTodosProductos() : Collection</text><ellipse cx="96" cy="859.6172" fill="#84BE84" rx="3" ry="3" style="stroke:#038048;stroke-width:1.0;"/><text fill="#000000" font-family="sans-serif" font-size="14" lengthAdjust="spacing" textLength="340" x="105" y="863.8457">obtenerProductosPorCategoria(categoria) : Collection</text><ellipse cx="96" cy="877.2266" fill="#84BE84" rx="3" ry="3" style="stroke:#038048;stroke-width:1.0;"/><text fill="#000000" font-family="sans-serif" font-size="14" lengthAdjust="spacing" textLength="275" x="105" y="881.4551">obtenerCategoriasDisponibles() : Collection</text><ellipse cx="96" cy="894.8359" fill="#84BE84" rx="3" ry="3" style="stroke:#038048;stroke-width:1.0;"/><text fill="#000000" font-family="sans-serif" font-size="14" lengthAdjust="spacing" textLength="293" x="105" y="899.0645">obtenerProductosAgrupadosCategoria() : Map</text></g><!--link User to ListaCompra--><g id="link_User_ListaCompra"><path codeLine="60" d="M367.56,196.32 C355.44,220.39 341.74,247.59 328.47,273.94 " fill="none" id="User-ListaCompra" style="stroke:#181818;stroke-width:1.0;"/><text fill="#000000" font-family="sans-serif" font-size="13" lengthAdjust="spacing" textLength="28" x="350" y="240.4951">tiene</text><text fill="#000000" font-family="sans-serif" font-size="13" lengthAdjust="spacing" textLength="7" x="356.9558" y="217.1772">1</text><text fill="#000000" font-family="sans-serif" font-size="13" lengthAdjust="spacing" textLength="20" x="311.7032" y="263.188">0..*</text></g><!--link Supermercado to ListaCompra--><g id="link_Supermercado_ListaCompra"><path codeLine="61" d="M156.9,178.11 C171.29,206.07 189.1,240.68 206.22,273.94 " fill="none" id="Supermercado-ListaCompra" style="stroke:#181818;stroke-width:1.0;"/><text fill="#000000" font-family="sans-serif" font-size="13" lengthAdjust="spacing" textLength="60" x="190" y="240.4951">categoriza</text><text fill="#000000" font-family="sans-serif" font-size="13" lengthAdjust="spacing" textLength="7" x="153.1175" y="199.7789">1</text><text fill="#000000" font-family="sans-serif" font-size="13" lengthAdjust="spacing" textLength="20" x="181.6216" y="263.188">0..*</text></g><!--link ListaCompra to ProductoLista--><g id="link_ListaCompra_ProductoLista"><path codeLine="62" d="M268,516 C268,540.99 268,567.66 268,593.71 " fill="none" id="ListaCompra-ProductoLista" style="stroke:#181818;stroke-width:1.0;"/><text fill="#000000" font-family="sans-serif" font-size="13" lengthAdjust="spacing" textLength="49" x="269" y="560.4951">contiene</text><text fill="#000000" font-family="sans-serif" font-size="13" lengthAdjust="spacing" textLength="7" x="260.7867" y="537.3758">1</text><text fill="#000000" font-family="sans-serif" font-size="13" lengthAdjust="spacing" textLength="20" x="247.5156" y="583.2524">0..*</text></g><!--SRC=[bLJ9Rjim4BthAmQws5qSjDS0FGHs3WNYnEXsDSRaL21ASGIIQe4M-VToaMmnaPsM5uquyzwyMQG5V3X_gWLi53OMMmH9iDReoC4AjW-Rsxk7uBs4hJeKFx0XgBSiITVmfwe0HE1myDMH3UyGpaeP3qfcstchJ0C6Moekg4MbYvikqFnYE-1MwV56A-VHRMZDRMTn-GgkOSrQa_2AJGvnPEHjPFj6LdrN0gFhdltHJgYVd1GzdXH_xZkoBLc1aYyfv_PWwNz5DUJl4p1vCrMP_YwIP8QvxD7kGq_tqmitaRn_MMVlUhIAauGudw5V4vBacZOYXtIMPIyykzdQX2MqIVuoAlmetnR2udiM4y6JCZFwmDQES2Kdema-FdWob9rk89zJq78ekYGfyqpwl1jgIG7dEfqckXS9Fj_O_TYJ4qYWyKhY42r9g1OrT3OO_8GXb5FSXCY6pFEbAdRgMUk6zkoEqqcO-HO9DXxdGuFs74DQjSgSeixDumjBThkBE_5Ksexj6ZqrR1KknMXTG1wZtKQvZeqwQFgtL3UDxRkmT-wKCCAss8sBi81Ff35CnL0SG_fL7K_zlWupWFhTrTNhklWgqxa6hqAw02l-5o_3ng9_n-6L_X9RBcZ6Xk6bhDNZNm00]--></g></svg>