<?xml version="1.0" encoding="us-ascii" standalone="no"?><svg xmlns="http://www.w3.org/2000/svg" xmlns:xlink="http://www.w3.org/1999/xlink" contentStyleType="text/css" height="989px" preserveAspectRatio="none" style="width:1214px;height:989px;background:#FFFFFF;" version="1.1" viewBox="0 0 1214 989" width="1214px" zoomAndPan="magnify"><defs/><g><rect fill="none" height="22.6406" style="stroke:none;stroke-width:1.0;" width="1181.5" x="15" y="12.4551"/><ellipse cx="168" cy="50.0957" fill="#222222" rx="10" ry="10" style="stroke:#222222;stroke-width:1.0;"/><rect fill="#F1F1F1" height="35.0938" rx="12.5" ry="12.5" style="stroke:#181818;stroke-width:0.5;" width="148" x="94" y="80.0957"/><text fill="#000000" font-family="sans-serif" font-size="12" lengthAdjust="spacing" textLength="128" x="104" y="102.5527">Abre p&#225;gina de registro</text><rect fill="#F1F1F1" height="35.0938" rx="12.5" ry="12.5" style="stroke:#181818;stroke-width:0.5;" width="292" x="22" y="135.1895"/><text fill="#000000" font-family="sans-serif" font-size="12" lengthAdjust="spacing" textLength="272" x="32" y="157.6465">Completa formulario (nombre, email, contrase&#241;a)</text><rect fill="#F1F1F1" height="35.0938" rx="12.5" ry="12.5" style="stroke:#181818;stroke-width:0.5;" width="163" x="86.5" y="190.2832"/><text fill="#000000" font-family="sans-serif" font-size="12" lengthAdjust="spacing" textLength="143" x="96.5" y="212.7402">Hace clic en "Registrarse"</text><rect fill="#F1F1F1" height="35.0938" rx="12.5" ry="12.5" style="stroke:#181818;stroke-width:0.5;" width="294" x="21" y="615.5488"/><text fill="#000000" font-family="sans-serif" font-size="12" lengthAdjust="spacing" textLength="274" x="31" y="638.0059">Recibe correo y hace clic en enlace de verificaci&#243;n</text><line style="stroke:#000000;stroke-width:1.5;" x1="15" x2="15" y1="12.4551" y2="977.0176"/><rect fill="#F1F1F1" height="35.0938" rx="12.5" ry="12.5" style="stroke:#181818;stroke-width:0.5;" width="214" x="500.75" y="245.377"/><text fill="#000000" font-family="sans-serif" font-size="12" lengthAdjust="spacing" textLength="194" x="510.75" y="267.834">Recibe datos en RegisterController</text><rect fill="none" height="139.7969" style="stroke:#000000;stroke-width:1.5;" width="326" x="444.75" y="290.4707"/><path d="M537.75,290.4707 L537.75,301.0801 L527.75,311.0801 L444.75,311.0801 " fill="none" style="stroke:#000000;stroke-width:1.5;"/><text fill="#000000" font-family="sans-serif" font-size="14" lengthAdjust="spacing" textLength="83" x="447.75" y="306.0039">AuthServices</text><rect fill="#F1F1F1" height="35.0938" rx="12.5" ry="12.5" style="stroke:#181818;stroke-width:0.5;" width="306" x="454.75" y="328.0801"/><text fill="#000000" font-family="sans-serif" font-size="12" lengthAdjust="spacing" textLength="286" x="464.75" y="350.5371">Valida campos y crea usuario (estado: no verificado)</text><rect fill="#F1F1F1" height="35.0938" rx="12.5" ry="12.5" style="stroke:#181818;stroke-width:0.5;" width="208" x="503.75" y="383.1738"/><text fill="#000000" font-family="sans-serif" font-size="12" lengthAdjust="spacing" textLength="188" x="513.75" y="405.6309">Genera token de verificaci&#243;n &#250;nico</text><rect fill="#F1F1F1" height="35.0938" rx="12.5" ry="12.5" style="stroke:#181818;stroke-width:0.5;" width="343" x="436.25" y="450.2676"/><text fill="#000000" font-family="sans-serif" font-size="12" lengthAdjust="spacing" textLength="323" x="446.25" y="472.7246">Guarda usuario en base de datos (email_verified_at = null)</text><rect fill="#F1F1F1" height="35.0938" rx="12.5" ry="12.5" style="stroke:#181818;stroke-width:0.5;" width="329" x="443.25" y="505.3613"/><text fill="#000000" font-family="sans-serif" font-size="12" lengthAdjust="spacing" textLength="309" x="453.25" y="527.8184">Invoca EmailVerificacionCustom para notificar al usuario</text><rect fill="#F1F1F1" height="35.0938" rx="12.5" ry="12.5" style="stroke:#181818;stroke-width:0.5;" width="243" x="486.25" y="670.6426"/><text fill="#000000" font-family="sans-serif" font-size="12" lengthAdjust="spacing" textLength="223" x="496.25" y="693.0996">Petici&#243;n llega y se ejecuta metodo fulfill()</text><rect fill="#F1F1F1" height="35.0938" rx="12.5" ry="12.5" style="stroke:#181818;stroke-width:0.5;" width="212" x="501.75" y="725.7363"/><text fill="#000000" font-family="sans-serif" font-size="12" lengthAdjust="spacing" textLength="192" x="511.75" y="748.1934">Verifica token contra base de datos</text><polygon fill="#F1F1F1" points="574.75,780.8301,640.75,780.8301,652.75,792.8301,640.75,804.8301,574.75,804.8301,562.75,792.8301,574.75,780.8301" style="stroke:#181818;stroke-width:0.5;"/><text fill="#000000" font-family="sans-serif" font-size="11" lengthAdjust="spacing" textLength="66" x="574.75" y="797.3311">Token v&#225;lido?</text><text fill="#000000" font-family="sans-serif" font-size="11" lengthAdjust="spacing" textLength="8" x="554.75" y="790.4131">s&#237;</text><text fill="#000000" font-family="sans-serif" font-size="11" lengthAdjust="spacing" textLength="12" x="652.75" y="790.4131">no</text><rect fill="#F1F1F1" height="35.0938" rx="12.5" ry="12.5" style="stroke:#181818;stroke-width:0.5;" width="271" x="325" y="814.8301"/><text fill="#000000" font-family="sans-serif" font-size="12" lengthAdjust="spacing" textLength="251" x="335" y="837.2871">Actualiza campo email_verified_at del usuario</text><rect fill="#F1F1F1" height="35.0938" rx="12.5" ry="12.5" style="stroke:#181818;stroke-width:0.5;" width="167" x="377" y="869.9238"/><text fill="#000000" font-family="sans-serif" font-size="12" lengthAdjust="spacing" textLength="147" x="387" y="892.3809">Redirige a p&#225;gina de inicio</text><rect fill="#F1F1F1" height="35.0938" rx="12.5" ry="12.5" style="stroke:#181818;stroke-width:0.5;" width="278" x="616" y="814.8301"/><text fill="#000000" font-family="sans-serif" font-size="12" lengthAdjust="spacing" textLength="258" x="626" y="837.2871">Muestra pantalla de "Token inv&#225;lido o expirado"</text><polygon fill="#F1F1F1" points="607.75,911.0176,619.75,923.0176,607.75,935.0176,595.75,923.0176,607.75,911.0176" style="stroke:#181818;stroke-width:0.5;"/><ellipse cx="607.75" cy="966.0176" fill="none" rx="11" ry="11" style="stroke:#222222;stroke-width:1.0;"/><ellipse cx="607.75" cy="966.0176" fill="#222222" rx="6" ry="6" style="stroke:#222222;stroke-width:1.0;"/><line style="stroke:#000000;stroke-width:1.5;" x1="319" x2="319" y1="12.4551" y2="977.0176"/><rect fill="#F1F1F1" height="35.0938" rx="12.5" ry="12.5" style="stroke:#181818;stroke-width:0.5;" width="287" x="904" y="560.4551"/><text fill="#000000" font-family="sans-serif" font-size="12" lengthAdjust="spacing" textLength="267" x="914" y="582.9121">Env&#237;a correo a usuario con enlace de verificaci&#243;n</text><line style="stroke:#000000;stroke-width:1.5;" x1="898" x2="898" y1="12.4551" y2="977.0176"/><line style="stroke:#000000;stroke-width:1.5;" x1="1195" x2="1195" y1="12.4551" y2="977.0176"/><line style="stroke:#181818;stroke-width:1.0;" x1="168" x2="168" y1="60.0957" y2="80.0957"/><polygon fill="#181818" points="164,70.0957,168,80.0957,172,70.0957,168,74.0957" style="stroke:#181818;stroke-width:1.0;"/><line style="stroke:#181818;stroke-width:1.0;" x1="168" x2="168" y1="115.1895" y2="135.1895"/><polygon fill="#181818" points="164,125.1895,168,135.1895,172,125.1895,168,129.1895" style="stroke:#181818;stroke-width:1.0;"/><line style="stroke:#181818;stroke-width:1.0;" x1="168" x2="168" y1="170.2832" y2="190.2832"/><polygon fill="#181818" points="164,180.2832,168,190.2832,172,180.2832,168,184.2832" style="stroke:#181818;stroke-width:1.0;"/><line style="stroke:#181818;stroke-width:1.0;" x1="607.75" x2="607.75" y1="363.1738" y2="383.1738"/><polygon fill="#181818" points="603.75,373.1738,607.75,383.1738,611.75,373.1738,607.75,377.1738" style="stroke:#181818;stroke-width:1.0;"/><line style="stroke:#181818;stroke-width:1.0;" x1="607.75" x2="607.75" y1="280.4707" y2="328.0801"/><polygon fill="#181818" points="603.75,318.0801,607.75,328.0801,611.75,318.0801,607.75,322.0801" style="stroke:#181818;stroke-width:1.0;"/><line style="stroke:#181818;stroke-width:1.0;" x1="607.75" x2="607.75" y1="418.2676" y2="450.2676"/><polygon fill="#181818" points="603.75,440.2676,607.75,450.2676,611.75,440.2676,607.75,444.2676" style="stroke:#181818;stroke-width:1.0;"/><line style="stroke:#181818;stroke-width:1.0;" x1="607.75" x2="607.75" y1="485.3613" y2="505.3613"/><polygon fill="#181818" points="603.75,495.3613,607.75,505.3613,611.75,495.3613,607.75,499.3613" style="stroke:#181818;stroke-width:1.0;"/><line style="stroke:#181818;stroke-width:1.0;" x1="607.75" x2="607.75" y1="705.7363" y2="725.7363"/><polygon fill="#181818" points="603.75,715.7363,607.75,725.7363,611.75,715.7363,607.75,719.7363" style="stroke:#181818;stroke-width:1.0;"/><line style="stroke:#181818;stroke-width:1.0;" x1="460.5" x2="460.5" y1="849.9238" y2="869.9238"/><polygon fill="#181818" points="456.5,859.9238,460.5,869.9238,464.5,859.9238,460.5,863.9238" style="stroke:#181818;stroke-width:1.0;"/><line style="stroke:#181818;stroke-width:1.0;" x1="562.75" x2="460.5" y1="792.8301" y2="792.8301"/><line style="stroke:#181818;stroke-width:1.0;" x1="460.5" x2="460.5" y1="792.8301" y2="814.8301"/><polygon fill="#181818" points="456.5,804.8301,460.5,814.8301,464.5,804.8301,460.5,808.8301" style="stroke:#181818;stroke-width:1.0;"/><line style="stroke:#181818;stroke-width:1.0;" x1="652.75" x2="755" y1="792.8301" y2="792.8301"/><line style="stroke:#181818;stroke-width:1.0;" x1="755" x2="755" y1="792.8301" y2="814.8301"/><polygon fill="#181818" points="751,804.8301,755,814.8301,759,804.8301,755,808.8301" style="stroke:#181818;stroke-width:1.0;"/><line style="stroke:#181818;stroke-width:1.0;" x1="460.5" x2="460.5" y1="905.0176" y2="923.0176"/><line style="stroke:#181818;stroke-width:1.0;" x1="460.5" x2="595.75" y1="923.0176" y2="923.0176"/><polygon fill="#181818" points="585.75,919.0176,595.75,923.0176,585.75,927.0176,589.75,923.0176" style="stroke:#181818;stroke-width:1.0;"/><line style="stroke:#181818;stroke-width:1.0;" x1="755" x2="755" y1="849.9238" y2="923.0176"/><line style="stroke:#181818;stroke-width:1.0;" x1="755" x2="619.75" y1="923.0176" y2="923.0176"/><polygon fill="#181818" points="629.75,919.0176,619.75,923.0176,629.75,927.0176,625.75,923.0176" style="stroke:#181818;stroke-width:1.0;"/><line style="stroke:#181818;stroke-width:1.0;" x1="607.75" x2="607.75" y1="760.8301" y2="780.8301"/><polygon fill="#181818" points="603.75,770.8301,607.75,780.8301,611.75,770.8301,607.75,774.8301" style="stroke:#181818;stroke-width:1.0;"/><line style="stroke:#181818;stroke-width:1.0;" x1="607.75" x2="607.75" y1="935.0176" y2="955.0176"/><polygon fill="#181818" points="603.75,945.0176,607.75,955.0176,611.75,945.0176,607.75,949.0176" style="stroke:#181818;stroke-width:1.0;"/><line style="stroke:#181818;stroke-width:1.0;" x1="168" x2="168" y1="225.377" y2="230.377"/><line style="stroke:#181818;stroke-width:1.0;" x1="168" x2="607.75" y1="230.377" y2="230.377"/><line style="stroke:#181818;stroke-width:1.0;" x1="607.75" x2="607.75" y1="230.377" y2="245.377"/><polygon fill="#181818" points="603.75,235.377,607.75,245.377,611.75,235.377,607.75,239.377" style="stroke:#181818;stroke-width:1.0;"/><line style="stroke:#181818;stroke-width:1.0;" x1="607.75" x2="607.75" y1="540.4551" y2="545.4551"/><line style="stroke:#181818;stroke-width:1.0;" x1="607.75" x2="1047.5" y1="545.4551" y2="545.4551"/><line style="stroke:#181818;stroke-width:1.0;" x1="1047.5" x2="1047.5" y1="545.4551" y2="560.4551"/><polygon fill="#181818" points="1043.5,550.4551,1047.5,560.4551,1051.5,550.4551,1047.5,554.4551" style="stroke:#181818;stroke-width:1.0;"/><line style="stroke:#181818;stroke-width:1.0;" x1="1047.5" x2="1047.5" y1="595.5488" y2="600.5488"/><line style="stroke:#181818;stroke-width:1.0;" x1="1047.5" x2="168" y1="600.5488" y2="600.5488"/><line style="stroke:#181818;stroke-width:1.0;" x1="168" x2="168" y1="600.5488" y2="615.5488"/><polygon fill="#181818" points="164,605.5488,168,615.5488,172,605.5488,168,609.5488" style="stroke:#181818;stroke-width:1.0;"/><line style="stroke:#181818;stroke-width:1.0;" x1="168" x2="168" y1="650.6426" y2="655.6426"/><line style="stroke:#181818;stroke-width:1.0;" x1="168" x2="607.75" y1="655.6426" y2="655.6426"/><line style="stroke:#181818;stroke-width:1.0;" x1="607.75" x2="607.75" y1="655.6426" y2="670.6426"/><polygon fill="#181818" points="603.75,660.6426,607.75,670.6426,611.75,660.6426,607.75,664.6426" style="stroke:#181818;stroke-width:1.0;"/><text fill="#000000" font-family="sans-serif" font-size="18" lengthAdjust="spacing" textLength="62" x="136" y="31.1406">Usuario</text><text fill="#000000" font-family="sans-serif" font-size="18" lengthAdjust="spacing" textLength="81" x="568" y="31.1406">Aplicaci&#243;n</text><text fill="#000000" font-family="sans-serif" font-size="18" lengthAdjust="spacing" textLength="149" x="972" y="31.1406">Servicio de Correo</text><!--SRC=[TLFDRjD04BxxAKOvELAVm1P2KLIL7YgX0BrMazrnCdIzOwrtBGhXOVe0FI1kNFrYZBr9crAHc-EPRxu_7xxq2GFBeUWZXbXKgsqWwCR77Ni4In1entqCKXVLMjhEKKHe9BJ9JMjGUcbrumAeHNONOCJ7W3sDlt2fAn_G41Z71iZ3OfEnCFIqg8l3gjCNQ7ZyxGz5jI73MmABKVffEWzJM4-8uXo5kkYK8aSMnLgbkFz4OM13_G9-5A2_wXOTMmI3RQSW3s028QIi44fIYLOgy0831Mxqk1LbEQzUaQU04ELURwlkqyHC3yO_derwyBEehXJDlg3gz5RrJYkPUZaxSPVtoTvXX7VWatFBDvAl_I06uN9Qk7s-9twT-YWjg5fKid7-Fm2wqr45ojBrljvTImYa2LQNVXYVLFxy32ySDHJbwQOi_bMcKCyDE4Lmt7-0_Nbw_mTuBUeZHSwcQMOxL1XrXxwIITgSbg9OWIQvXfqhfugSX1-jpmLwxMbTS0Fbv_dzC3vgnl9-2N6lZsK_FYrpWYiJa-R__PW_lCt1qfc5yyw6B0VUaPfrrddsaxLrGKv9QCEF1suIJUtLN7n4v-RHHMR5_iWBzEwtZeCsIojEtdAZNvPqVm40]--></g></svg>