<?xml version="1.0" encoding="us-ascii" standalone="no"?><svg xmlns="http://www.w3.org/2000/svg" xmlns:xlink="http://www.w3.org/1999/xlink" contentStyleType="text/css" height="435px" preserveAspectRatio="none" style="width:1143px;height:435px;background:#FFFFFF;" version="1.1" viewBox="0 0 1143 435" width="1143px" zoomAndPan="magnify"><defs/><g><!--cluster views--><g id="cluster_views"><path d="M8.5,6 L50.5,6 A3.75,3.75 0 0 1 53,8.5 L60,29.6094 L1133.5,29.6094 A2.5,2.5 0 0 1 1136,32.1094 L1136,425.5 A2.5,2.5 0 0 1 1133.5,428 L8.5,428 A2.5,2.5 0 0 1 6,425.5 L6,8.5 A2.5,2.5 0 0 1 8.5,6 " fill="none" style="stroke:#000000;stroke-width:1.5;"/><line style="stroke:#000000;stroke-width:1.5;" x1="6" x2="60" y1="29.6094" y2="29.6094"/><text fill="#000000" font-family="sans-serif" font-size="14" font-weight="bold" lengthAdjust="spacing" textLength="41" x="10" y="22.5332">views</text></g><!--cluster layouts--><g id="cluster_layouts"><path d="M497.5,200 L548.5,200 A3.75,3.75 0 0 1 551,202.5 L558,223.6094 L656.5,223.6094 A2.5,2.5 0 0 1 659,226.1094 L659,297.5 A2.5,2.5 0 0 1 656.5,300 L497.5,300 A2.5,2.5 0 0 1 495,297.5 L495,202.5 A2.5,2.5 0 0 1 497.5,200 " fill="none" style="stroke:#000000;stroke-width:1.5;"/><line style="stroke:#000000;stroke-width:1.5;" x1="495" x2="558" y1="223.6094" y2="223.6094"/><text fill="#000000" font-family="sans-serif" font-size="14" font-weight="bold" lengthAdjust="spacing" textLength="50" x="499" y="216.5332">layouts</text></g><!--cluster components--><g id="cluster_components"><path d="M420.5,50 L508.5,50 A3.75,3.75 0 0 1 511,52.5 L518,73.6094 L778.5,73.6094 A2.5,2.5 0 0 1 781,76.1094 L781,147.5 A2.5,2.5 0 0 1 778.5,150 L420.5,150 A2.5,2.5 0 0 1 418,147.5 L418,52.5 A2.5,2.5 0 0 1 420.5,50 " fill="none" style="stroke:#000000;stroke-width:1.5;"/><line style="stroke:#000000;stroke-width:1.5;" x1="418" x2="518" y1="73.6094" y2="73.6094"/><text fill="#000000" font-family="sans-serif" font-size="14" font-weight="bold" lengthAdjust="spacing" textLength="87" x="422" y="66.5332">components</text></g><!--entity crear_listas.blade.php--><g id="elem_crear_listas.blade.php"><rect fill="#F1F1F1" height="47.6094" rx="2.5" ry="2.5" style="stroke:#181818;stroke-width:0.5;" width="180" x="22" y="364"/><rect fill="#F1F1F1" height="10" style="stroke:#181818;stroke-width:0.5;" width="15" x="182" y="369"/><rect fill="#F1F1F1" height="2" style="stroke:#181818;stroke-width:0.5;" width="4" x="180" y="371"/><rect fill="#F1F1F1" height="2" style="stroke:#181818;stroke-width:0.5;" width="4" x="180" y="375"/><text fill="#000000" font-family="sans-serif" font-size="14" lengthAdjust="spacing" textLength="140" x="37" y="398.5332">crear_listas.blade.php</text></g><!--entity index.blade.php--><g id="elem_index.blade.php"><rect fill="#F1F1F1" height="47.6094" rx="2.5" ry="2.5" style="stroke:#181818;stroke-width:0.5;" width="140" x="237" y="364"/><rect fill="#F1F1F1" height="10" style="stroke:#181818;stroke-width:0.5;" width="15" x="357" y="369"/><rect fill="#F1F1F1" height="2" style="stroke:#181818;stroke-width:0.5;" width="4" x="355" y="371"/><rect fill="#F1F1F1" height="2" style="stroke:#181818;stroke-width:0.5;" width="4" x="355" y="375"/><text fill="#000000" font-family="sans-serif" font-size="14" lengthAdjust="spacing" textLength="100" x="252" y="398.5332">index.blade.php</text></g><!--entity listas.blade.php--><g id="elem_listas.blade.php"><rect fill="#F1F1F1" height="47.6094" rx="2.5" ry="2.5" style="stroke:#181818;stroke-width:0.5;" width="139" x="412.5" y="364"/><rect fill="#F1F1F1" height="10" style="stroke:#181818;stroke-width:0.5;" width="15" x="531.5" y="369"/><rect fill="#F1F1F1" height="2" style="stroke:#181818;stroke-width:0.5;" width="4" x="529.5" y="371"/><rect fill="#F1F1F1" height="2" style="stroke:#181818;stroke-width:0.5;" width="4" x="529.5" y="375"/><text fill="#000000" font-family="sans-serif" font-size="14" lengthAdjust="spacing" textLength="99" x="427.5" y="398.5332">listas.blade.php</text></g><!--entity productos.blade.php--><g id="elem_productos.blade.php"><rect fill="#F1F1F1" height="47.6094" rx="2.5" ry="2.5" style="stroke:#181818;stroke-width:0.5;" width="170" x="587" y="364"/><rect fill="#F1F1F1" height="10" style="stroke:#181818;stroke-width:0.5;" width="15" x="737" y="369"/><rect fill="#F1F1F1" height="2" style="stroke:#181818;stroke-width:0.5;" width="4" x="735" y="371"/><rect fill="#F1F1F1" height="2" style="stroke:#181818;stroke-width:0.5;" width="4" x="735" y="375"/><text fill="#000000" font-family="sans-serif" font-size="14" lengthAdjust="spacing" textLength="130" x="602" y="398.5332">productos.blade.php</text></g><!--entity register.blade.php--><g id="elem_register.blade.php"><rect fill="#F1F1F1" height="47.6094" rx="2.5" ry="2.5" style="stroke:#181818;stroke-width:0.5;" width="155" x="792.5" y="364"/><rect fill="#F1F1F1" height="10" style="stroke:#181818;stroke-width:0.5;" width="15" x="927.5" y="369"/><rect fill="#F1F1F1" height="2" style="stroke:#181818;stroke-width:0.5;" width="4" x="925.5" y="371"/><rect fill="#F1F1F1" height="2" style="stroke:#181818;stroke-width:0.5;" width="4" x="925.5" y="375"/><text fill="#000000" font-family="sans-serif" font-size="14" lengthAdjust="spacing" textLength="115" x="807.5" y="398.5332">register.blade.php</text></g><!--entity login.blade.php--><g id="elem_login.blade.php"><rect fill="#F1F1F1" height="47.6094" rx="2.5" ry="2.5" style="stroke:#181818;stroke-width:0.5;" width="137" x="982.5" y="364"/><rect fill="#F1F1F1" height="10" style="stroke:#181818;stroke-width:0.5;" width="15" x="1099.5" y="369"/><rect fill="#F1F1F1" height="2" style="stroke:#181818;stroke-width:0.5;" width="4" x="1097.5" y="371"/><rect fill="#F1F1F1" height="2" style="stroke:#181818;stroke-width:0.5;" width="4" x="1097.5" y="375"/><text fill="#000000" font-family="sans-serif" font-size="14" lengthAdjust="spacing" textLength="97" x="997.5" y="398.5332">login.blade.php</text></g><!--entity app.blade.php--><g id="elem_app.blade.php"><rect fill="#F1F1F1" height="47.6094" rx="2.5" ry="2.5" style="stroke:#181818;stroke-width:0.5;" width="131" x="511.5" y="236"/><rect fill="#F1F1F1" height="10" style="stroke:#181818;stroke-width:0.5;" width="15" x="622.5" y="241"/><rect fill="#F1F1F1" height="2" style="stroke:#181818;stroke-width:0.5;" width="4" x="620.5" y="243"/><rect fill="#F1F1F1" height="2" style="stroke:#181818;stroke-width:0.5;" width="4" x="620.5" y="247"/><text fill="#000000" font-family="sans-serif" font-size="14" lengthAdjust="spacing" textLength="91" x="526.5" y="270.5332">app.blade.php</text></g><!--entity header.blade.php--><g id="elem_header.blade.php"><rect fill="#F1F1F1" height="47.6094" rx="2.5" ry="2.5" style="stroke:#181818;stroke-width:0.5;" width="152" x="434" y="86"/><rect fill="#F1F1F1" height="10" style="stroke:#181818;stroke-width:0.5;" width="15" x="566" y="91"/><rect fill="#F1F1F1" height="2" style="stroke:#181818;stroke-width:0.5;" width="4" x="564" y="93"/><rect fill="#F1F1F1" height="2" style="stroke:#181818;stroke-width:0.5;" width="4" x="564" y="97"/><text fill="#000000" font-family="sans-serif" font-size="14" lengthAdjust="spacing" textLength="112" x="449" y="120.5332">header.blade.php</text></g><!--entity footer.blade.php--><g id="elem_footer.blade.php"><rect fill="#F1F1F1" height="47.6094" rx="2.5" ry="2.5" style="stroke:#181818;stroke-width:0.5;" width="144" x="621" y="86"/><rect fill="#F1F1F1" height="10" style="stroke:#181818;stroke-width:0.5;" width="15" x="745" y="91"/><rect fill="#F1F1F1" height="2" style="stroke:#181818;stroke-width:0.5;" width="4" x="743" y="93"/><rect fill="#F1F1F1" height="2" style="stroke:#181818;stroke-width:0.5;" width="4" x="743" y="97"/><text fill="#000000" font-family="sans-serif" font-size="14" lengthAdjust="spacing" textLength="104" x="636" y="120.5332">footer.blade.php</text></g><!--reverse link app.blade.php to crear_listas.blade.php--><g id="link_app.blade.php_crear_listas.blade.php"><path d="M505.5687,280.3588 C423.2087,302.6688 287.59,339.42 197.02,363.96 " fill="none" id="app.blade.php-backto-crear_listas.blade.php" style="stroke:#181818;stroke-width:1.0;stroke-dasharray:7.0,7.0;"/><polygon fill="#181818" points="511.36,278.79,501.6272,277.2823,506.5339,280.0973,503.7189,285.004,511.36,278.79" style="stroke:#181818;stroke-width:1.0;"/><text fill="#000000" font-family="sans-serif" font-size="13" lengthAdjust="spacing" textLength="21" x="373" y="330.4951">usa</text></g><!--reverse link app.blade.php to index.blade.php--><g id="link_app.blade.php_index.blade.php"><path d="M522.0426,286.6468 C473.4726,309.3068 405.28,341.14 356.66,363.82 " fill="none" id="app.blade.php-backto-index.blade.php" style="stroke:#181818;stroke-width:1.0;stroke-dasharray:7.0,7.0;"/><polygon fill="#181818" points="527.48,284.11,517.6328,284.2902,522.9489,286.224,521.0151,291.54,527.48,284.11" style="stroke:#181818;stroke-width:1.0;"/><text fill="#000000" font-family="sans-serif" font-size="13" lengthAdjust="spacing" textLength="21" x="459" y="330.4951">usa</text></g><!--reverse link app.blade.php to listas.blade.php--><g id="link_app.blade.php_listas.blade.php"><path d="M555.9668,288.9001 C538.9268,311.4901 516.74,340.92 499.64,363.61 " fill="none" id="app.blade.php-backto-listas.blade.php" style="stroke:#181818;stroke-width:1.0;stroke-dasharray:7.0,7.0;"/><polygon fill="#181818" points="559.58,284.11,550.9668,288.8863,556.569,288.1017,557.3535,293.7039,559.58,284.11" style="stroke:#181818;stroke-width:1.0;"/><text fill="#000000" font-family="sans-serif" font-size="13" lengthAdjust="spacing" textLength="21" x="536" y="330.4951">usa</text></g><!--reverse link app.blade.php to productos.blade.php--><g id="link_app.blade.php_productos.blade.php"><path d="M598.0332,288.9001 C615.0732,311.4901 637.26,340.92 654.36,363.61 " fill="none" id="app.blade.php-backto-productos.blade.php" style="stroke:#181818;stroke-width:1.0;stroke-dasharray:7.0,7.0;"/><polygon fill="#181818" points="594.42,284.11,596.6465,293.7039,597.431,288.1017,603.0332,288.8863,594.42,284.11" style="stroke:#181818;stroke-width:1.0;"/><text fill="#000000" font-family="sans-serif" font-size="13" lengthAdjust="spacing" textLength="21" x="631" y="330.4951">usa</text></g><!--reverse link app.blade.php to register.blade.php--><g id="link_app.blade.php_register.blade.php"><path d="M636.2521,286.4801 C688.9521,309.1401 763.35,341.14 816.1,363.82 " fill="none" id="app.blade.php-backto-register.blade.php" style="stroke:#181818;stroke-width:1.0;stroke-dasharray:7.0,7.0;"/><polygon fill="#181818" points="630.74,284.11,637.428,291.3398,635.3334,286.0851,640.5881,283.9904,630.74,284.11" style="stroke:#181818;stroke-width:1.0;"/><text fill="#000000" font-family="sans-serif" font-size="13" lengthAdjust="spacing" textLength="21" x="742" y="330.4951">usa</text></g><!--reverse link app.blade.php to login.blade.php--><g id="link_app.blade.php_login.blade.php"><path d="M648.3699,279.9064 C725.5299,300.3464 851.69,333.81 965,364 C970.68,365.51 976.56,367.08 982.47,368.66 " fill="none" id="app.blade.php-backto-login.blade.php" style="stroke:#181818;stroke-width:1.0;stroke-dasharray:7.0,7.0;"/><polygon fill="#181818" points="642.57,278.37,650.2456,284.5413,647.4033,279.6504,652.2942,276.808,642.57,278.37" style="stroke:#181818;stroke-width:1.0;"/><text fill="#000000" font-family="sans-serif" font-size="13" lengthAdjust="spacing" textLength="21" x="848" y="330.4951">usa</text></g><!--reverse link header.blade.php to app.blade.php--><g id="link_header.blade.php_app.blade.php"><path d="M522.9433,139.5865 C535.4533,167.2365 553.81,207.76 566.38,235.55 " fill="none" id="header.blade.php-backto-app.blade.php" style="stroke:#181818;stroke-width:1.0;stroke-dasharray:7.0,7.0;"/><polygon fill="#181818" points="520.47,134.12,520.5356,143.9686,522.5311,138.6754,527.8243,140.6709,520.47,134.12" style="stroke:#181818;stroke-width:1.0;"/><text fill="#000000" font-family="sans-serif" font-size="13" lengthAdjust="spacing" textLength="41" x="542" y="180.4951">incluye</text></g><!--reverse link footer.blade.php to app.blade.php--><g id="link_footer.blade.php_app.blade.php"><path d="M671.1789,138.8425 C649.5089,166.4925 617.16,207.76 595.38,235.55 " fill="none" id="footer.blade.php-backto-app.blade.php" style="stroke:#181818;stroke-width:1.0;stroke-dasharray:7.0,7.0;"/><polygon fill="#181818" points="674.88,134.12,666.18,138.7363,671.7957,138.0554,672.4766,143.6711,674.88,134.12" style="stroke:#181818;stroke-width:1.0;"/><text fill="#000000" font-family="sans-serif" font-size="13" lengthAdjust="spacing" textLength="41" x="649" y="180.4951">incluye</text></g><!--SRC=[bLFHIiCm57tlLrpsqWrcFq1KcFZYcp3PIn6vI- -wO9PaQQ8EsIVv5VwOwJQbIxEC5Kh3wJadvvwG76wJJvR30yVQu0gX8dZ2jIDB3Lp1x77wF9d2S4R6SePYvAbdl3AhD5W5SsMjMa753J7BbSmoZUmDQuB1EwUFPW1V6K0EaxNx-OQ6m0Tm6gNNLjY0yAyMA2qNxV9Ue4ys5BXHpZPZ4BonwB_QgCeng_mIdLsEWImhHjvueKH51WO7nNutW1ArBkQjMQ6N-iLZsmwPgPLMacI7loJFDSSI3o-KiY7SEfNC49hNVRpZtoMN5Nq6M9JuFrI06wezFTos5AhciejjCtzCfv90KTo5DS0rk0PRKPWnpRxGF3PNMX6P-4oYe8i4EmlXcw8utTfU4vNqEajmBpAEzfNWnzfAPGcxElIIzmhRbTYx2PxF9HDkGwSalLlIaMGHmrsitc7zAI9sQS4l]--></g></svg>